<?xml version="1.0" standalone="no"?>
<!DOCTYPE svg PUBLIC "-//W3C//DTD SVG 20010904//EN"
 "http://www.w3.org/TR/2001/REC-SVG-20010904/DTD/svg10.dtd">
<svg version="1.0" xmlns="http://www.w3.org/2000/svg"
 width="" height="" viewBox="0 0 360.000000 360.000000"
 preserveAspectRatio="xMidYMid meet">
<metadata>
Created by potrace 1.10, written by Peter Selinger 2001-2011
</metadata>
<g transform="translate(0.000000,360.000000) scale(0.100000,-0.100000)"
fill="#000000" stroke="none">
<path d="M1379 3306 c-31 -12 -72 -32 -91 -44 -28 -17 -115 -113 -170 -187 -4
-5 -19 -25 -34 -42 -14 -18 -22 -33 -17 -33 6 0 13 3 17 7 3 4 14 8 24 9 9 2
18 8 20 14 9 25 117 130 130 125 7 -2 10 0 7 5 -13 22 131 120 176 120 15 0
29 7 33 15 3 8 11 15 18 15 9 0 9 -3 -2 -11 -19 -13 18 -3 64 17 29 13 27 13
-44 13 -56 0 -89 -5 -131 -23z m-34 -46 c-3 -6 -21 -17 -38 -26 -36 -19 -31
-9 10 17 34 21 36 22 28 9z m-104 -83 c-10 -9 -11 -8 -5 6 3 10 9 15 12 12 3
-3 0 -11 -7 -18z"/>
<path d="M1560 3305 c-41 -30 -37 -31 22 -7 42 17 134 19 124 3 -3 -5 6 -6 19
-3 14 2 32 1 42 -2 15 -6 15 -8 3 -17 -11 -8 -8 -8 10 -3 22 6 23 5 12 -9 -10
-12 -10 -17 -1 -23 7 -4 9 -3 5 4 -3 6 -1 14 4 17 8 5 6 13 -6 26 -15 17 -12
16 24 -3 23 -13 37 -24 32 -26 -9 -3 11 -37 50 -84 27 -34 20 -93 -21 -170
-10 -19 -2 -22 26 -12 12 5 13 9 5 14 -14 8 11 63 40 88 8 8 10 11 4 8 -7 -3
-15 1 -18 10 -9 23 -7 31 4 14 7 -11 8 -6 5 19 -2 18 -7 36 -11 40 -4 3 -4 -2
-1 -11 4 -10 2 -18 -3 -18 -6 0 -10 6 -10 14 0 7 -7 19 -15 26 -12 10 -13 16
-3 28 11 13 10 15 -2 10 -15 -6 -33 8 -37 30 -2 7 2 12 8 12 5 0 7 5 3 11 -4
7 -9 8 -13 1 -4 -7 -13 -6 -25 3 -17 13 -17 14 6 11 33 -3 50 -15 42 -29 -5
-9 -4 -9 6 0 7 6 19 9 26 6 16 -6 19 8 5 23 -6 5 15 9 57 9 l67 0 12 -35 c6
-19 12 -48 12 -63 1 -31 -39 -116 -64 -137 -14 -12 -15 -10 -6 14 7 17 7 26 1
26 -6 0 -10 -5 -10 -11 0 -5 -5 -7 -10 -4 -7 4 -8 -3 -4 -21 5 -18 3 -25 -3
-21 -6 4 -13 1 -16 -6 -3 -8 1 -14 9 -14 8 0 14 4 14 9 0 4 7 8 14 8 19 0 66
61 66 84 0 9 4 15 8 12 12 -7 14 66 3 115 -12 51 -7 63 10 25 14 -30 33 -36
24 -7 -8 27 13 37 30 15 13 -18 14 -18 20 -1 7 17 8 17 22 0 8 -10 12 -12 8
-5 -4 7 0 12 9 12 20 0 21 -14 2 -29 -11 -10 -16 -8 -24 5 -8 14 -9 13 -9 -9
0 -15 2 -27 6 -27 11 1 61 49 61 60 0 14 5 13 47 -15 21 -14 46 -31 57 -38 17
-11 36 -26 96 -77 l25 -21 -24 12 -24 11 20 -28 c12 -16 22 -33 23 -39 7 -29
17 -40 40 -41 14 0 24 -5 23 -12 -2 -7 4 -12 12 -12 8 0 15 -4 15 -10 0 -5 7
-10 15 -10 13 0 13 -4 -2 -26 -19 -30 -28 -134 -10 -134 6 0 8 -3 4 -6 -3 -4
0 -13 8 -21 20 -20 19 -43 -2 -43 -16 -1 -16 -2 1 -15 12 -9 14 -15 7 -15 -7
0 -11 -6 -8 -12 2 -7 9 -12 15 -11 6 1 13 -21 17 -50 4 -29 11 -62 16 -74 5
-13 5 -23 0 -23 -9 0 -22 24 -27 51 -2 9 -15 38 -28 65 -13 27 -22 52 -20 56
3 5 0 7 -7 6 -6 -2 -14 3 -17 11 -3 8 0 11 7 7 6 -4 11 -1 11 8 0 8 -4 17 -8
20 -4 3 -14 28 -22 56 -7 27 -18 46 -22 42 -5 -5 0 -29 10 -53 16 -38 21 -92
12 -124 -5 -15 19 -69 27 -61 8 7 43 -23 43 -37 0 -6 12 -25 26 -44 25 -34 29
-58 4 -28 -7 8 -19 15 -26 15 -7 0 -11 6 -8 13 2 7 -10 26 -28 42 -18 17 -26
22 -19 13 8 -11 9 -18 3 -18 -6 0 -16 8 -22 18 -10 15 -11 15 -5 -3 4 -11 9
-33 12 -50 3 -16 10 -36 15 -42 6 -7 7 -13 2 -13 -14 -1 39 -29 54 -30 8 0 -5
21 -27 47 -23 25 -39 49 -35 52 3 3 16 -6 29 -21 13 -15 26 -24 29 -21 8 8 36
-29 30 -39 -3 -5 -1 -8 4 -8 6 0 13 -7 16 -16 5 -13 1 -15 -24 -12 -38 6 -38
0 0 -13 17 -6 30 -17 30 -25 0 -11 -4 -12 -19 -4 -33 17 -46 12 -26 -10 10
-11 21 -17 24 -13 16 21 31 11 31 -21 0 -18 4 -46 9 -62 5 -16 12 -53 16 -81
5 -44 3 -53 -10 -53 -8 0 -15 -5 -15 -11 0 -5 5 -7 10 -4 12 8 30 -36 30 -75
0 -23 -3 -27 -20 -23 -23 6 -27 41 -7 62 10 11 9 13 -4 8 -11 -4 -20 3 -28 19
-6 14 -7 24 -1 24 5 0 6 8 3 17 -5 12 -2 15 10 10 9 -3 17 -2 17 3 0 6 -7 10
-15 10 -8 0 -15 4 -15 10 0 5 -12 20 -27 34 -15 14 -24 29 -19 33 4 4 11 1 16
-7 5 -8 12 -11 16 -7 4 3 1 13 -5 21 -7 8 -14 27 -15 43 -2 15 -4 31 -5 36 0
4 -11 7 -23 8 -22 0 -22 1 -3 9 11 5 15 9 9 9 -12 1 -15 31 -3 31 5 0 -2 11
-15 25 -29 31 -38 32 -27 2 11 -28 23 -85 22 -109 0 -11 6 -15 17 -12 15 5 15
4 0 -6 -19 -12 -25 -50 -8 -50 5 0 7 -7 4 -15 -4 -9 0 -15 8 -15 22 0 48 -33
48 -61 -1 -22 -3 -21 -18 10 -9 19 -23 37 -31 39 -11 4 -13 -5 -8 -49 4 -30 7
-66 7 -81 0 -16 5 -28 11 -28 7 0 10 14 7 35 -3 24 1 36 10 40 17 6 16 7 31
-22 14 -28 15 -55 1 -33 -5 8 -10 10 -10 4 0 -5 7 -19 15 -30 17 -22 19 -50 6
-59 -6 -3 -25 4 -43 15 -21 13 -51 20 -83 20 -48 0 -51 2 -64 33 -8 17 -13 35
-13 38 1 8 -39 45 -44 41 -6 -4 -104 32 -104 38 0 8 -202 -7 -235 -18 -104
-33 -195 -109 -225 -188 -11 -31 -17 -60 -14 -66 4 -6 0 -14 -7 -19 -10 -6
-11 -11 -3 -16 6 -5 14 -28 17 -52 3 -24 11 -47 18 -51 6 -4 8 -13 5 -19 -4
-6 -2 -11 4 -11 6 0 13 -7 17 -15 14 -39 87 -95 150 -116 135 -44 261 -12 372
94 45 44 52 48 47 27 -6 -21 -5 -22 4 -7 6 9 8 22 5 27 -3 6 -2 10 3 10 5 0
13 10 17 23 6 19 8 47 14 163 1 23 7 33 29 41 24 9 22 10 -15 5 -28 -3 -43 -1
-43 7 0 7 21 11 55 11 30 0 54 -3 54 -7 -5 -31 3 -43 29 -43 l27 0 -25 21 -25
21 25 -15 c14 -8 24 -22 22 -31 -2 -9 4 -16 12 -16 18 0 50 -45 42 -59 -9 -14
-58 -6 -71 12 -6 9 -20 16 -31 16 -10 0 -32 3 -49 6 l-30 6 24 -21 c14 -12 38
-24 53 -27 16 -3 31 -10 34 -14 3 -5 14 -9 26 -9 18 0 20 -4 14 -37 -8 -49 8
-25 33 50 20 57 20 119 1 143 -9 10 -9 14 -1 14 6 0 16 -10 22 -22 10 -23 5
173 -6 237 -4 24 -3 26 4 10 9 -19 10 -19 10 -1 1 10 -6 24 -14 30 -10 7 -21
58 -35 161 -11 83 -22 157 -25 165 -2 8 -9 54 -15 102 -6 47 -17 99 -25 115
-21 40 -16 131 6 117 5 -3 12 2 15 10 3 9 14 16 24 16 18 0 21 -15 7 -37 -5
-8 -4 -13 2 -13 6 0 11 4 11 9 0 11 69 55 76 49 2 -3 -11 -16 -30 -28 -35 -25
-63 -60 -47 -60 5 0 21 14 34 30 25 29 45 42 32 19 -4 -6 2 -5 13 2 11 7 25
22 30 34 5 11 20 21 33 22 l24 1 -22 -15 c-13 -8 -23 -22 -23 -30 0 -8 -4 -12
-9 -8 -6 3 -15 -4 -21 -15 -6 -11 -15 -18 -19 -16 -4 3 -8 -11 -9 -32 -1 -26
1 -33 8 -22 5 8 7 17 6 20 -2 3 6 13 17 24 11 10 18 15 15 10 -22 -49 -34 -70
-42 -75 -5 -4 -7 -21 -4 -38 2 -17 1 -31 -4 -31 -4 0 -8 -7 -8 -15 0 -8 6 -15
13 -15 20 0 65 -51 73 -83 4 -17 2 -38 -6 -51 -10 -19 -9 -29 4 -55 19 -37 28
-40 23 -8 -2 12 -2 16 0 9 3 -7 9 -10 14 -7 5 4 9 -3 9 -14 0 -11 5 -23 12
-27 7 -4 8 -3 4 4 -4 7 -2 12 3 12 6 0 11 -5 11 -11 0 -6 12 -23 28 -37 52
-51 103 -122 96 -133 -5 -8 -3 -9 6 -4 8 5 11 3 8 -6 -2 -8 -19 -18 -36 -24
-18 -5 -32 -16 -33 -25 0 -13 -1 -13 -6 0 -3 8 -13 23 -21 33 -14 16 -14 19 2
35 16 16 17 16 11 -9 -4 -16 -2 -30 4 -33 18 -11 13 56 -6 79 -14 18 -15 18
-9 2 14 -42 -7 -34 -30 10 -29 57 -29 59 -7 42 12 -10 11 -5 -4 17 -12 17 -30
37 -39 45 -16 13 -16 12 -5 -8 6 -13 16 -23 22 -23 6 0 8 -9 4 -20 -4 -13 1
-34 14 -56 12 -20 19 -40 16 -44 -3 -5 15 -44 41 -86 36 -59 43 -78 33 -85
-16 -10 -39 7 -39 30 0 14 2 14 10 1 5 -8 10 -10 10 -5 -1 14 -47 65 -60 65
-5 0 -10 6 -10 13 0 6 -5 4 -11 -6 -5 -9 -7 -22 -4 -27 3 -6 -1 -10 -9 -10 -9
0 -16 5 -16 11 0 5 -5 7 -11 3 -8 -4 -3 -11 12 -20 14 -7 31 -24 39 -38 7 -14
18 -26 23 -26 5 0 2 11 -7 25 -21 31 -20 34 4 32 11 -1 20 -8 20 -18 0 -19 25
-71 31 -65 2 3 4 -8 5 -22 1 -34 10 -82 29 -147 8 -28 12 -61 8 -74 -5 -21 -7
-20 -24 16 -9 21 -18 31 -18 22 -1 -9 2 -19 6 -23 8 -7 9 -12 11 -54 1 -13 7
-20 12 -17 14 9 12 -1 -7 -38 -9 -18 -17 -35 -18 -39 -1 -20 -18 -10 -31 17
-16 33 -15 27 12 -75 20 -76 7 -182 -31 -260 -7 -14 -23 -58 -36 -98 -18 -59
-20 -75 -10 -81 7 -5 15 -28 18 -52 6 -53 -17 -112 -51 -135 -33 -21 -114 -24
-126 -4 -12 18 -3 176 12 203 7 14 6 22 -3 31 -9 8 -11 7 -6 -7 4 -11 3 -16
-3 -12 -17 10 -11 35 8 35 13 0 14 2 4 9 -8 4 -12 17 -11 27 4 20 -1 24 -26
24 -20 0 -19 -26 1 -34 13 -5 14 -9 5 -20 -8 -10 -8 -21 -1 -41 7 -20 8 -31 0
-39 -5 -5 -10 -20 -10 -32 0 -13 -5 -26 -11 -29 -11 -7 -3 -62 12 -81 5 -6 6
-13 3 -17 -10 -10 7 -47 22 -47 11 0 12 -4 5 -18 -6 -10 -8 -30 -5 -43 5 -23
5 -23 -13 4 -17 27 -33 35 -33 18 0 -5 7 -14 15 -21 8 -7 15 -17 15 -22 0 -6
-8 -4 -17 3 -15 12 -16 12 -10 -3 4 -11 2 -18 -6 -18 -8 0 -8 -3 2 -9 10 -6
10 -10 1 -16 -9 -6 -9 -10 1 -16 10 -6 11 -9 2 -9 -7 0 -13 -11 -13 -25 0 -29
-8 -32 -26 -7 -12 15 -13 14 -14 -10 0 -16 -5 -28 -10 -28 -6 0 -9 12 -7 28 2
15 0 33 -6 40 -5 6 -6 12 -2 12 4 0 2 7 -5 15 -9 10 -9 15 -1 15 6 0 11 4 11
8 0 5 -6 9 -14 9 -9 0 -13 -9 -10 -26 3 -14 8 -51 13 -81 5 -30 9 -49 10 -42
0 6 6 12 12 12 6 0 1 -12 -10 -26 -12 -15 -21 -33 -21 -40 0 -8 -6 -11 -15 -8
-8 4 -15 1 -15 -5 0 -6 5 -11 12 -11 6 0 8 -3 5 -6 -4 -4 -13 -1 -22 6 -11 9
-15 10 -15 0 0 -22 -25 -3 -26 20 -1 13 -6 26 -12 28 -6 2 -8 11 -5 20 8 19 9
73 2 70 -11 -6 -39 31 -34 44 3 7 0 20 -5 28 -9 13 -12 12 -25 -4 -8 -11 -15
-31 -14 -45 1 -24 2 -23 10 6 13 43 28 42 24 -1 -3 -27 0 -33 11 -29 17 6 18
-1 3 -29 -10 -18 -9 -20 5 -15 18 7 23 -18 6 -28 -6 -4 -8 -11 -5 -16 4 -5 2
-9 -3 -9 -10 0 -8 -34 6 -98 11 -47 3 -66 -23 -56 -15 6 -17 4 -12 -10 4 -10
0 -27 -8 -39 -8 -12 -15 -16 -15 -10 0 7 -7 10 -15 7 -9 -4 -15 0 -15 9 0 10
7 13 19 10 16 -4 19 -1 14 16 -3 12 -10 24 -15 27 -6 4 -8 -1 -4 -13 4 -13 2
-20 -8 -20 -8 0 -13 10 -12 24 0 12 6 23 11 23 6 0 19 10 29 22 15 18 16 20 2
15 -11 -5 -16 -1 -16 13 0 12 5 17 14 14 20 -8 27 8 10 24 -11 10 -15 8 -25
-10 -7 -13 -19 -28 -27 -34 -8 -6 -12 -16 -8 -22 3 -6 1 -23 -4 -38 -8 -21 -8
-29 2 -36 7 -4 9 -8 4 -8 -5 0 -1 -9 9 -20 10 -11 13 -20 7 -20 -19 0 -27 4
-28 15 0 6 -2 16 -2 23 -1 6 -7 12 -12 12 -6 0 -8 -12 -4 -27 4 -22 3 -25 -5
-13 -8 11 -11 11 -11 2 0 -7 14 -18 30 -23 35 -13 42 -34 8 -23 -21 6 -22 5
-8 -11 14 -17 13 -18 -2 -12 -9 3 -22 -1 -28 -9 -7 -8 -9 -14 -5 -14 4 0 2 -6
-4 -13 -6 -8 -9 -16 -6 -19 3 -3 -1 -11 -10 -18 -12 -10 -15 -10 -15 0 0 9 -5
8 -18 -3 -10 -10 -23 -17 -29 -17 -6 0 -13 -7 -17 -15 -3 -8 -10 -15 -16 -15
-8 0 -8 6 0 20 9 17 8 20 -8 20 -16 0 -19 -6 -17 -30 1 -16 -2 -27 -7 -24 -5
3 -8 15 -6 26 2 12 -3 23 -10 25 -7 3 -10 -1 -6 -10 3 -8 1 -18 -5 -22 -6 -3
-11 -1 -11 6 0 8 -4 8 -16 -2 -13 -10 -17 -10 -25 2 -8 10 -9 8 -4 -8 5 -19 2
-23 -14 -23 -12 0 -21 6 -21 13 0 8 -3 7 -10 -3 -10 -17 -12 -17 -76 -19 -25
0 -43 -4 -41 -8 3 -5 -1 -14 -9 -21 -8 -7 -14 -8 -14 -2 0 5 -4 10 -10 10 -5
0 -7 -7 -4 -15 4 -8 1 -15 -5 -15 -6 0 -11 6 -11 14 0 17 -27 29 -35 16 -3 -5
-16 -10 -28 -10 -77 -1 -112 2 -115 9 -1 4 -21 6 -43 5 -27 -1 -42 3 -46 12
-3 8 -15 14 -27 14 -29 0 -98 48 -90 62 5 7 1 9 -9 5 -11 -4 -17 -1 -17 9 0 8
-4 13 -9 9 -5 -3 -17 5 -26 17 -8 13 -19 23 -23 23 -4 0 -6 3 -4 8 1 4 -7 7
-18 7 -11 0 -20 5 -20 11 0 5 5 7 10 4 6 -3 10 -1 10 4 0 6 -9 11 -21 11 -11
0 -17 5 -14 10 3 6 -3 10 -15 10 -17 0 -20 4 -15 23 4 14 3 18 -3 9 -7 -10
-17 -4 -44 24 -34 34 -35 37 -20 55 16 18 17 18 23 2 3 -10 1 -21 -5 -25 -7
-5 -5 -8 5 -8 24 0 29 10 18 32 -13 25 -9 29 31 30 34 1 58 -21 37 -34 -9 -6
-9 -8 0 -8 13 0 33 30 33 49 0 6 -6 8 -14 5 -8 -3 -16 2 -19 13 -4 16 -5 16
-6 1 0 -10 -5 -18 -11 -18 -5 0 -10 8 -10 18 0 23 35 74 44 65 12 -13 36 28
36 63 0 37 26 66 40 44 7 -11 14 -11 32 -3 23 11 23 12 -7 14 -16 1 -36 2 -43
2 -8 -1 -12 6 -9 17 2 10 -3 23 -13 30 -17 12 -17 15 -3 37 10 15 12 23 4 23
-7 0 -9 5 -6 10 4 6 11 7 17 4 7 -5 9 -1 5 9 -4 10 0 17 11 20 16 4 16 5 0 6
-9 0 -24 -6 -33 -15 -19 -19 -30 -11 -39 29 -5 21 -4 27 5 21 7 -4 10 -2 7 6
-6 20 -28 24 -28 6 0 -9 -5 -25 -12 -35 -9 -15 -8 -26 6 -54 9 -20 21 -39 26
-42 6 -3 10 -11 10 -16 0 -6 -5 -7 -12 -3 -7 4 -8 3 -4 -4 4 -7 16 -12 28 -12
17 0 19 -4 13 -27 -4 -16 -7 -39 -8 -53 -1 -14 -11 -35 -23 -46 -26 -25 -54
-76 -54 -99 0 -8 -4 -15 -9 -15 -5 0 -5 15 -1 35 5 21 4 35 -2 35 -5 0 -6 10
-3 21 5 14 3 19 -3 15 -6 -3 -12 -1 -14 6 -2 6 -12 -7 -21 -30 -20 -49 -32
-55 -23 -12 7 39 -10 30 -19 -9 -5 -23 -10 -28 -26 -24 -14 4 -17 8 -8 13 8 6
5 11 -10 20 -17 9 -21 18 -17 38 9 46 15 128 9 112 -3 -8 -13 -21 -22 -28 -14
-11 -14 -11 1 -6 15 5 16 2 8 -24 -4 -17 -6 -33 -2 -36 3 -3 -2 -6 -10 -6 -8
0 -28 12 -43 26 -18 17 -31 22 -38 15 -5 -5 -17 -6 -26 -1 -9 4 -28 13 -43 20
-15 7 -25 17 -22 22 3 4 0 8 -5 8 -15 0 -14 119 0 175 6 25 15 42 20 39 5 -3
6 2 3 10 -3 9 -9 16 -13 16 -5 0 -14 19 -21 43 -7 23 -17 45 -23 49 -6 3 -12
21 -14 40 -2 18 -5 44 -7 58 -15 122 -27 222 -30 260 -1 25 -3 -20 -3 -100 0
-99 5 -153 14 -172 7 -15 9 -29 4 -32 -5 -3 -11 4 -14 15 -3 12 -10 18 -16 15
-5 -3 -12 8 -16 26 -4 18 -13 47 -20 63 -16 36 -61 188 -70 232 -3 17 -6 50
-7 72 0 23 -4 41 -8 41 -17 0 -18 32 -4 81 9 28 13 53 11 56 -3 2 -8 -9 -12
-26 -4 -17 -10 -29 -14 -27 -4 3 -6 -17 -5 -45 1 -27 -2 -52 -7 -55 -5 -3 -9
17 -9 44 0 27 -3 78 -7 113 l-6 64 -18 -50 c-10 -29 -18 -41 -18 -29 -1 12 6
41 15 65 9 24 18 58 21 74 3 17 9 38 14 47 5 9 9 27 9 40 0 14 3 18 8 11 5 -7
20 17 41 63 24 54 37 72 43 62 6 -9 7 -6 3 10 -4 12 -2 22 4 22 6 0 8 7 5 15
-4 9 3 16 20 21 14 3 26 10 26 15 0 5 -8 6 -17 3 -12 -4 -10 1 7 17 14 13 20
20 13 16 -6 -5 -18 -5 -24 -1 -8 4 -9 3 -5 -4 4 -7 2 -12 -3 -12 -6 0 -11 -5
-11 -12 0 -6 -6 -19 -13 -27 -7 -9 -24 -41 -37 -71 -13 -30 -30 -62 -38 -70
-13 -13 -13 -12 -3 7 13 26 14 46 2 39 -4 -3 -16 3 -25 13 -16 18 -15 19 8 23
14 3 25 2 24 -1 -3 -30 6 -30 22 -1 26 48 25 51 -17 30 -21 -9 -49 -20 -63
-24 -14 -3 5 9 42 27 56 27 70 39 85 72 9 22 19 44 21 49 3 5 -1 5 -8 1 -7 -4
-2 6 10 23 13 17 27 29 31 26 7 -4 20 23 25 54 3 15 -8 16 -24 0 -19 -19 -14
-32 6 -17 15 13 16 12 3 -3 -7 -10 -17 -15 -22 -12 -5 3 -9 1 -9 -5 0 -6 -10
-16 -22 -22 -22 -12 -22 -11 -9 7 8 10 26 31 39 46 13 14 21 31 17 37 -3 7 -1
10 6 9 7 -2 15 8 19 22 8 34 20 5 13 -36 -4 -25 -2 -24 15 12 11 23 25 45 31
48 8 5 6 12 -5 23 -14 15 -14 18 10 42 50 52 62 67 75 99 19 44 35 53 26 13
-4 -19 -3 -31 4 -31 5 0 8 18 6 44 -4 50 25 109 49 100 8 -3 19 3 26 16 6 11
15 18 19 15 9 -5 47 45 43 58 -1 4 4 7 12 7 8 0 21 8 28 18 7 10 29 25 48 35
23 11 29 17 16 17 -11 0 -16 3 -13 7 4 3 20 6 37 5 17 0 28 3 25 8 -3 4 -20 6
-38 4 -27 -4 -22 0 28 25 33 17 49 28 35 25 -43 -11 -101 -44 -95 -54 4 -6 -1
-10 -9 -10 -9 0 -16 -4 -16 -10 0 -5 8 -7 18 -4 14 5 14 4 2 -4 -8 -6 -18 -8
-22 -5 -12 6 -39 -17 -33 -28 3 -4 -4 -13 -15 -19 -11 -6 -17 -16 -14 -22 5
-7 2 -9 -9 -5 -9 3 -16 2 -14 -2 3 -11 -55 -66 -67 -63 -5 2 -18 -5 -30 -14
-11 -10 0 4 27 29 43 43 66 75 33 48 -7 -6 -20 -9 -28 -6 -16 7 -58 -61 -58
-94 0 -30 -39 -97 -101 -176 -33 -42 -45 -63 -32 -59 17 5 17 5 -1 -10 -10 -8
-22 -13 -27 -11 -4 3 -27 -21 -52 -52 -59 -78 -60 -80 -47 -104 7 -11 9 -32 6
-45 -10 -37 -67 -95 -113 -116 -46 -20 -61 -58 -25 -58 27 0 52 -32 52 -65 0
-16 -9 -47 -19 -69 -53 -112 -68 -248 -31 -281 11 -10 20 -27 20 -38 0 -12 8
-30 19 -41 10 -12 24 -46 30 -76 7 -30 16 -71 21 -90 5 -19 12 -48 15 -65 4
-16 10 -39 15 -50 4 -11 18 -45 30 -75 13 -30 42 -78 66 -106 29 -34 44 -61
44 -79 0 -16 8 -37 17 -47 14 -16 15 -24 5 -52 -7 -18 -12 -71 -12 -117 0 -76
2 -88 23 -107 13 -12 30 -22 38 -22 8 0 37 -9 64 -19 58 -22 105 -77 131 -156
14 -40 36 -68 109 -140 203 -198 273 -234 502 -250 96 -7 174 5 303 47 109 37
190 78 234 119 17 16 52 44 77 62 58 40 133 135 179 226 19 38 42 77 51 87 27
31 89 155 89 179 0 30 27 51 75 60 22 3 48 14 58 23 43 38 58 126 36 205 -9
34 -7 47 22 115 43 105 47 119 59 260 6 69 17 136 25 152 21 40 19 168 -2 252
-14 54 -15 74 -6 98 6 16 9 49 6 72 -6 38 -3 44 28 70 l33 28 -29 55 c-17 33
-63 89 -111 137 -70 69 -83 86 -82 112 0 18 -13 57 -31 91 -28 53 -31 66 -26
110 6 49 51 155 65 155 24 0 44 180 28 248 -20 84 -36 52 -69 -140 -11 -65
-44 -100 -95 -100 -110 1 -159 30 -196 114 -23 53 -85 116 -147 147 -38 20
-55 21 -383 21 l-343 -1 -35 -24z m1240 -91 c-7 -43 -6 -46 7 -28 13 18 14 17
7 -11 -10 -44 -44 -102 -59 -102 -10 0 -9 6 4 24 12 15 21 49 26 98 4 41 10
73 14 70 5 -2 5 -26 1 -51z m-280 -499 c0 -14 -2 -25 -4 -25 -2 0 -6 11 -8 25
-3 14 -1 25 3 25 5 0 9 -11 9 -25z m-1640 -90 c-7 -9 -15 -13 -18 -10 -3 2 1
11 8 20 7 9 15 13 18 10 3 -2 -1 -11 -8 -20z m1669 -19 c-3 -3 -11 5 -18 17
-13 21 -12 21 5 5 10 -10 16 -20 13 -22z m307 -296 c5 1 10 -2 11 -7 2 -5 -5
-9 -15 -9 -11 0 -19 8 -20 21 -1 14 1 16 7 7 5 -8 12 -13 17 -12z m-276 -86
c0 -8 -4 -12 -10 -9 -5 3 -10 13 -10 21 0 8 5 12 10 9 6 -3 10 -13 10 -21z
m-273 -14 c18 -10 29 -20 26 -24 -4 -4 -1 -5 7 -1 18 6 69 -39 71 -63 1 -9 3
-24 4 -32 1 -8 3 -42 5 -75 3 -54 4 -55 7 -17 2 23 8 40 12 38 5 -4 -12 -171
-18 -182 -15 -23 -54 -53 -63 -48 -7 5 -8 3 -3 -5 4 -7 -2 -22 -16 -37 -28
-30 -49 -32 -23 -1 14 16 11 15 -11 -5 -81 -72 -199 -96 -295 -59 -89 34 -171
130 -186 218 -2 15 -6 38 -9 49 -10 44 21 114 72 159 106 97 317 140 420 85z
m343 -175 c4 3 7 -6 6 -19 -1 -25 -16 -25 -16 0 0 8 -7 14 -15 14 -18 0 -20
17 -2 23 6 2 13 -2 15 -10 2 -7 7 -11 12 -8z m-2014 -173 c-11 -10 -15 4 -8
28 l7 25 3 -23 c2 -13 1 -26 -2 -30z m1999 -622 c3 -5 1 -10 -4 -10 -6 0 -11
5 -11 10 0 6 2 10 4 10 3 0 8 -4 11 -10z m-1319 -170 c16 -14 20 -65 4 -55 -5
3 -10 17 -10 31 0 13 -4 24 -10 24 -5 0 -9 12 -9 28 1 22 2 23 6 5 2 -12 11
-27 19 -33z m-81 -285 c-4 -32 -16 -55 -26 -49 -5 3 -9 1 -9 -5 0 -6 -10 -15
-22 -22 -17 -9 -20 -9 -15 2 3 8 8 23 12 34 8 20 8 20 -9 0 -17 -20 -17 -20
-6 3 6 12 18 22 26 22 9 0 12 -5 8 -12 -4 -8 -3 -10 2 -5 5 5 9 12 9 15 1 4 4
20 9 37 6 22 10 26 16 15 4 -8 6 -24 5 -35z m1195 20 c-8 -9 -6 -14 5 -18 8
-4 12 -13 9 -21 -5 -13 -8 -13 -19 -3 -18 18 -17 67 2 60 10 -4 11 -9 3 -18z
m48 -55 c-8 -12 -16 -16 -22 -10 -6 6 -4 15 4 24 17 22 32 9 18 -14z m-144
-31 c-3 -5 -10 -7 -15 -3 -5 3 -7 10 -3 15 3 5 10 7 15 3 5 -3 7 -10 3 -15z
m105 -5 c-14 -18 -24 -11 -15 11 3 9 11 13 16 10 8 -5 7 -11 -1 -21z m20 -36
c-6 -12 -24 -36 -39 -51 -22 -22 -29 -25 -33 -13 -4 9 1 17 13 21 10 3 28 22
40 42 23 38 40 40 19 1z m-98 -101 c-10 -9 -11 -8 -5 6 3 10 9 15 12 12 3 -3
0 -11 -7 -18z m-71 -57 c0 -5 -4 -10 -10 -10 -5 0 -10 5 -10 10 0 6 5 10 10
10 6 0 10 -4 10 -10z m-367 -147 c-7 -2 -19 -2 -25 0 -7 3 -2 5 12 5 14 0 19
-2 13 -5z m82 -3 c-3 -5 -11 -10 -16 -10 -6 0 -7 5 -4 10 3 6 11 10 16 10 6 0
7 -4 4 -10z m-205 -21 c0 -6 -4 -7 -10 -4 -5 3 -10 11 -10 16 0 6 5 7 10 4 6
-3 10 -11 10 -16z m160 11 c0 -5 -4 -10 -10 -10 -5 0 -10 5 -10 10 0 6 5 10
10 10 6 0 10 -4 10 -10z"/>
<path d="M2182 2208 c3 -7 13 -13 24 -14 17 -1 17 -1 -1 4 -18 5 -18 6 5 13
l25 7 -28 1 c-19 1 -27 -3 -25 -11z"/>
<path d="M2248 2203 c7 -3 16 -2 19 1 4 3 -2 6 -13 5 -11 0 -14 -3 -6 -6z"/>
<path d="M2268 2192 c-14 -6 -5 -14 38 -36 59 -31 84 -65 84 -115 0 -16 5 -33
10 -36 7 -4 9 2 5 17 -3 12 -7 42 -8 65 -1 22 -4 39 -6 37 -3 -2 -15 6 -28 18
-13 12 -23 18 -23 14 0 -4 -13 1 -29 10 -17 10 -28 21 -25 26 6 9 5 9 -18 0z"/>
<path d="M2018 2176 c-81 -29 -178 -115 -177 -155 0 -15 3 -20 6 -11 3 8 28
38 56 67 63 65 110 77 260 69 56 -3 110 -6 120 -6 10 -1 15 -6 11 -12 -4 -6
-3 -8 3 -5 11 7 59 -52 55 -69 -1 -6 5 -17 13 -24 9 -8 15 -8 15 -2 0 6 -4 13
-10 17 -5 3 -7 12 -4 19 3 8 -10 30 -29 50 -33 33 -48 41 -71 37 -5 -1 -12 3
-16 9 -11 18 -117 25 -137 9 -9 -8 -14 -9 -10 -3 7 12 -13 24 -36 24 -7 -1
-29 -7 -49 -14z"/>
<path d="M2228 2123 c6 -2 18 -2 25 0 6 3 1 5 -13 5 -14 0 -19 -2 -12 -5z"/>
<path d="M2036 2111 c-3 -4 27 -8 65 -8 39 -1 69 1 66 3 -7 8 -127 12 -131 5z"/>
<path d="M2275 2100 c-3 -6 -2 -17 2 -25 7 -12 10 -12 20 4 10 15 9 20 -2 25
-8 3 -17 1 -20 -4z"/>
<path d="M1990 2090 c0 -5 4 -10 9 -10 6 0 13 5 16 10 3 6 -1 10 -9 10 -9 0
-16 -4 -16 -10z"/>
<path d="M2128 2073 c7 -3 16 -2 19 1 4 3 -2 6 -13 5 -11 0 -14 -3 -6 -6z"/>
<path d="M2210 2065 c7 -8 17 -15 22 -15 5 0 3 7 -6 15 -8 8 -18 15 -22 15 -3
0 -1 -7 6 -15z"/>
<path d="M2312 2068 c5 -15 28 -23 28 -10 0 5 -7 13 -16 16 -10 4 -14 1 -12
-6z"/>
<path d="M2050 2053 c0 -18 -6 -23 -27 -23 -29 -1 -111 -66 -97 -78 4 -4 9 -1
11 6 3 6 10 12 16 12 7 0 22 10 33 23 12 12 34 23 49 25 25 2 25 1 9 -16 -17
-16 -16 -17 21 -20 27 -2 41 1 47 13 6 10 17 14 29 10 14 -5 17 -3 13 10 -5
13 -2 14 22 5 16 -6 34 -16 39 -23 14 -17 62 -47 75 -47 24 0 7 22 -37 50 -27
16 -52 33 -58 37 -16 12 -55 12 -55 -1 0 -6 -4 -5 -9 3 -8 13 -12 13 -27 0
-15 -12 -17 -12 -9 0 6 11 4 13 -8 8 -10 -4 -20 0 -26 11 -9 15 -10 14 -11 -5z
m55 -53 c-3 -5 -10 -10 -16 -10 -5 0 -9 5 -9 10 0 6 7 10 16 10 8 0 12 -4 9
-10z"/>
<path d="M1957 2026 c-4 -10 -1 -13 9 -9 15 6 19 23 5 23 -5 0 -11 -7 -14 -14z"/>
<path d="M2240 2030 c0 -5 5 -10 10 -10 6 0 10 5 10 10 0 6 -4 10 -10 10 -5 0
-10 -4 -10 -10z"/>
<path d="M2354 1988 c-4 -6 -3 -8 4 -4 5 3 13 0 15 -6 3 -8 6 -6 6 5 1 19 -14
23 -25 5z"/>
<path d="M2401 1974 c0 -11 3 -14 6 -6 3 7 2 16 -1 19 -3 4 -6 -2 -5 -13z"/>
<path d="M2085 1966 c-38 -7 -79 -11 -89 -8 -13 4 -17 1 -12 -7 6 -9 21 -10
49 -5 23 3 60 6 83 6 28 -1 44 4 48 13 3 8 2 15 -2 14 -4 0 -38 -7 -77 -13z"/>
<path d="M1854 1959 c-3 -6 -2 -15 4 -21 7 -7 14 -3 21 11 10 17 9 21 -3 21
-8 0 -18 -5 -22 -11z"/>
<path d="M2195 1943 c11 -3 25 -9 32 -15 7 -5 13 -5 17 0 9 15 -5 22 -38 21
-21 -1 -25 -3 -11 -6z"/>
<path d="M2349 1935 c-1 -11 0 -28 1 -39 1 -11 -3 -15 -9 -12 -7 4 -8 1 -5 -8
3 -9 10 -13 15 -10 5 3 9 1 9 -5 0 -21 -19 -20 -35 1 l-17 23 7 -23 c6 -21 4
-23 -13 -18 -11 4 -23 2 -27 -3 -3 -7 0 -8 9 -5 9 4 16 1 16 -6 0 -10 4 -9 16
1 13 10 17 10 24 0 5 -9 9 -10 14 -2 4 6 12 9 17 6 5 -3 6 1 3 9 -4 9 0 18 9
22 9 3 20 19 26 36 16 46 12 58 -5 16 -20 -46 -48 -61 -40 -20 3 15 2 34 -4
42 -8 13 -10 12 -11 -5z"/>
<path d="M1841 1914 c0 -11 3 -14 6 -6 3 7 2 16 -1 19 -3 4 -6 -2 -5 -13z"/>
<path d="M2118 1923 c6 -2 18 -2 25 0 6 3 1 5 -13 5 -14 0 -19 -2 -12 -5z"/>
<path d="M1856 1894 c-8 -22 -4 -25 11 -9 7 8 9 16 4 19 -5 3 -12 -1 -15 -10z"/>
<path d="M1915 1900 c-4 -6 7 -10 27 -10 25 0 29 3 18 10 -19 13 -37 13 -45 0z"/>
<path d="M2058 1903 c6 -2 18 -2 25 0 6 3 1 5 -13 5 -14 0 -19 -2 -12 -5z"/>
<path d="M2140 1879 c0 -5 5 -7 10 -4 6 3 10 8 10 11 0 2 -4 4 -10 4 -5 0 -10
-5 -10 -11z"/>
<path d="M1960 3302 c0 -5 7 -13 16 -16 10 -4 14 -1 12 6 -5 15 -28 23 -28 10z"/>
<path d="M2010 3300 c0 -5 5 -10 11 -10 5 0 7 5 4 10 -3 6 -8 10 -11 10 -2 0
-4 -4 -4 -10z"/>
<path d="M2119 3285 c17 -34 31 -51 31 -39 0 7 -9 22 -21 35 -16 19 -18 20
-10 4z"/>
<path d="M1587 3274 c3 -8 13 -14 22 -14 25 -1 51 -25 51 -49 0 -11 5 -21 10
-21 6 0 10 -6 10 -13 0 -7 9 -20 20 -30 11 -9 20 -22 21 -29 1 -39 9 -91 14
-96 7 -7 6 113 -1 132 -3 9 -10 14 -14 11 -10 -6 -53 65 -44 74 4 3 9 0 11 -6
3 -7 17 -13 33 -13 16 0 30 6 33 13 3 8 12 5 28 -10 13 -13 18 -23 12 -23 -7
0 -15 5 -18 10 -3 6 -11 10 -16 10 -6 0 -7 -4 -4 -10 3 -6 -1 -7 -9 -4 -9 3
-16 1 -16 -5 0 -11 13 -15 37 -12 20 3 53 -18 53 -34 0 -7 4 -17 10 -20 6 -3
7 1 4 9 -6 16 4 20 36 17 9 -1 11 1 5 6 -5 4 -14 16 -20 26 -5 10 -13 18 -18
17 -4 0 -37 16 -73 36 -61 34 -69 36 -102 26 -32 -10 -34 -9 -19 2 16 12 13
14 -22 14 -31 1 -39 -3 -34 -14z m138 -18 c29 -13 28 -13 -24 -10 -29 2 -56 6
-60 10 -3 4 2 4 12 1 9 -4 17 -2 17 3 0 13 19 12 55 -4z m109 -61 c-5 19 -5
19 6 2 7 -10 10 -21 7 -24 -9 -8 -48 18 -41 28 3 6 12 3 20 -8 13 -17 14 -17
8 2z"/>
<path d="M2252 3280 c4 -27 -13 -95 -29 -112 -9 -10 -12 -25 -8 -36 5 -16 2
-19 -13 -15 -19 5 -36 -24 -33 -54 1 -7 -3 -13 -9 -13 -5 0 -10 5 -10 11 0 5
-5 7 -11 3 -8 -5 -8 -8 0 -14 15 -9 1 -20 -57 -45 -23 -10 -47 -24 -54 -32 -6
-8 10 -3 37 11 26 14 51 26 54 26 12 -1 -42 -40 -55 -40 -8 0 -14 -4 -14 -10
0 -17 17 -11 48 15 17 14 40 25 53 25 17 0 20 -3 10 -9 -26 -17 8 -22 36 -6
16 9 20 14 11 11 -32 -10 -19 21 17 43 19 11 35 25 35 31 0 6 5 8 12 4 7 -4 8
-3 4 5 -4 6 0 23 9 38 11 16 13 29 7 35 -6 6 -14 -2 -22 -21 -7 -17 -16 -31
-21 -31 -4 0 -11 -9 -14 -20 -7 -22 -81 -77 -91 -68 -3 3 7 16 23 27 20 17 24
24 14 30 -10 6 -8 10 6 16 10 5 21 9 26 9 9 1 67 88 67 101 0 5 -12 -7 -27
-28 -30 -42 -43 -43 -20 0 9 15 18 36 21 47 5 15 9 16 21 6 20 -17 18 -2 -6
40 -10 19 -18 28 -17 20z"/>
<path d="M1533 3265 c-12 -9 -35 -15 -50 -14 -31 2 -118 -20 -110 -27 3 -3 22
-1 44 5 21 6 54 11 73 10 34 0 34 -1 10 -10 -14 -6 -43 -12 -65 -14 -23 -2
-56 -10 -75 -19 -19 -9 -26 -14 -14 -11 11 3 41 7 66 9 24 2 55 9 68 16 35 19
88 17 108 -4 16 -17 16 -18 -8 -12 -14 3 -19 3 -12 0 6 -3 9 -11 6 -16 -5 -7
-2 -8 5 -3 15 8 61 -31 61 -53 0 -12 -3 -12 -15 -2 -13 11 -14 10 -9 -4 3 -9
10 -16 15 -16 5 0 9 -7 9 -16 0 -8 -4 -12 -10 -9 -5 3 -10 -2 -10 -12 0 -11
-5 -24 -12 -31 -7 -7 -8 -12 -3 -12 5 0 -8 -15 -28 -34 -36 -33 -47 -56 -27
-56 5 0 7 6 4 14 -3 8 3 17 14 20 56 18 108 172 76 224 -8 12 -12 27 -9 32 3
5 1 12 -5 15 -6 4 -9 1 -8 -6 2 -6 -3 -14 -11 -17 -8 -3 -11 0 -7 6 7 11 -9
17 -64 25 l-25 3 28 12 c15 6 27 14 27 17 0 9 -15 5 -37 -10z m101 -81 c10
-27 7 -36 -9 -20 -8 8 -15 19 -15 25 0 17 17 13 24 -5z"/>
<path d="M1995 3270 c-3 -5 0 -10 8 -10 25 0 40 -26 28 -49 -6 -11 -8 -29 -3
-41 8 -21 8 -21 20 5 11 25 11 27 -5 21 -17 -6 -17 -5 0 8 16 12 17 18 6 38
-18 35 -42 48 -54 28z"/>
<path d="M2220 3271 c0 -5 5 -13 10 -16 6 -3 10 -2 10 4 0 5 -4 13 -10 16 -5
3 -10 2 -10 -4z"/>
<path d="M1902 3253 c9 -2 19 -16 21 -31 4 -24 4 -24 6 6 1 27 -2 32 -21 31
-16 -1 -18 -3 -6 -6z"/>
<path d="M1956 3251 c-4 -5 -2 -12 4 -16 5 -3 10 0 11 7 1 7 5 2 10 -12 l8
-25 -2 24 c-2 26 -21 39 -31 22z"/>
<path d="M2114 3249 c12 -44 -46 -189 -76 -189 -5 0 -23 -11 -40 -25 -16 -14
-25 -25 -19 -25 5 0 16 7 25 15 8 9 17 14 20 13 2 -2 25 12 50 30 47 34 81 83
68 97 -4 5 0 6 9 3 12 -5 14 0 11 25 -5 31 -5 31 -14 7 -5 -13 -14 -31 -21
-39 -10 -12 -9 -13 2 -6 10 6 12 4 6 -4 -14 -24 -25 5 -13 36 9 24 9 37 0 55
-7 13 -11 16 -8 7z"/>
<path d="M2192 3231 c-7 -19 -10 -36 -7 -39 6 -7 26 49 22 62 -2 6 -9 -5 -15
-23z"/>
<path d="M2010 3236 c0 -9 5 -16 10 -16 6 0 10 4 10 9 0 6 -4 13 -10 16 -5 3
-10 -1 -10 -9z"/>
<path d="M2304 3212 c-1 -21 1 -30 3 -22 3 8 10 20 14 26 6 7 4 15 -3 22 -10
8 -13 2 -14 -26z"/>
<path d="M2221 3233 c0 -6 -4 -20 -7 -30 -5 -14 -4 -15 5 -7 7 7 11 20 8 30
-3 11 -5 14 -6 7z"/>
<path d="M1525 3200 c3 -5 10 -10 16 -10 5 0 9 5 9 10 0 6 -7 10 -16 10 -8 0
-12 -4 -9 -10z"/>
<path d="M1974 3164 c0 -19 3 -34 7 -34 12 0 16 46 4 57 -8 7 -11 1 -11 -23z"/>
<path d="M2330 3180 c0 -14 -5 -18 -17 -13 -11 4 -14 3 -9 -5 13 -22 36 -13
36 13 0 14 -2 25 -5 25 -3 0 -5 -9 -5 -20z"/>
<path d="M2350 3191 c0 -6 4 -12 9 -16 6 -3 4 -22 -4 -48 -12 -33 -12 -38 -1
-25 7 10 17 14 21 10 4 -4 5 6 1 21 -4 19 -3 26 4 22 14 -9 13 18 -2 33 -14
14 -28 16 -28 3z"/>
<path d="M1365 3171 c3 -6 14 -9 25 -8 24 2 15 17 -11 17 -11 0 -18 -4 -14 -9z"/>
<path d="M1436 3168 c3 -5 -2 -16 -12 -23 -17 -13 -17 -14 -2 -15 9 0 19 6 21
13 4 8 8 8 14 2 4 -6 22 -11 38 -12 18 -1 22 0 10 4 -39 10 -38 22 3 20 22 0
39 -4 36 -8 -2 -4 3 -10 12 -13 10 -4 14 -12 9 -24 -4 -12 -3 -14 5 -6 11 11
-2 63 -17 65 -48 7 -122 5 -117 -3z"/>
<path d="M1760 3166 c0 -8 5 -16 12 -18 8 -3 11 -28 11 -74 0 -38 1 -61 4 -52
2 9 12 19 21 21 14 4 14 5 -2 6 -14 1 -16 4 -7 15 8 10 7 26 -5 65 -16 48 -34
68 -34 37z"/>
<path d="M2144 3115 c-46 -48 -80 -74 -138 -101 -42 -20 -74 -39 -72 -42 7 -6
69 19 78 32 5 7 8 7 8 -2 0 -8 16 -4 50 13 28 14 50 28 50 31 0 2 -9 0 -21 -6
-34 -19 -33 -4 1 16 17 10 42 36 57 56 14 21 29 38 33 38 4 0 10 7 14 15 3 8
4 15 3 15 -1 0 -29 -29 -63 -65z m-84 -95 c-8 -5 -19 -10 -25 -10 -5 0 -3 5 5
10 8 5 20 10 25 10 6 0 3 -5 -5 -10z"/>
<path d="M2635 3170 c-3 -5 1 -10 9 -10 9 0 16 5 16 10 0 6 -4 10 -9 10 -6 0
-13 -4 -16 -10z"/>
<path d="M1340 3140 c-18 -12 -2 -12 25 0 13 6 15 9 5 9 -8 0 -22 -4 -30 -9z"/>
<path d="M1674 3115 c0 -14 6 -25 11 -25 6 0 2 -5 -8 -11 -12 -7 -16 -17 -11
-31 4 -13 2 -18 -4 -14 -5 3 -12 0 -15 -7 -3 -8 1 -14 10 -14 8 0 17 13 20 29
3 15 9 28 14 28 12 0 7 43 -7 57 -9 10 -12 7 -10 -12z"/>
<path d="M1855 3130 c-3 -5 -3 -15 1 -21 6 -11 23 6 24 24 0 10 -18 9 -25 -3z"/>
<path d="M2325 3121 c-4 -12 -12 -18 -21 -14 -7 3 -14 1 -14 -5 0 -16 31 -7
42 12 5 10 8 20 5 23 -3 2 -8 -5 -12 -16z"/>
<path d="M1385 3115 c16 -9 37 -22 45 -29 33 -28 43 -27 15 2 -16 17 -43 34
-60 37 l-30 7 30 -17z"/>
<path d="M1505 3119 c-16 -5 -39 -6 -50 -3 -11 4 -16 3 -12 -2 14 -15 104 -12
104 3 0 15 -1 15 -42 2z"/>
<path d="M1883 3112 c-3 -12 -10 -22 -15 -22 -5 0 -6 -5 -2 -11 4 -8 12 -2 21
15 8 15 12 31 8 34 -3 3 -8 -4 -12 -16z"/>
<path d="M1320 3109 c0 -5 16 -11 35 -15 19 -3 35 -10 35 -15 0 -5 14 -15 30
-24 40 -20 38 -7 -3 26 -31 25 -97 44 -97 28z"/>
<path d="M2422 3085 c-2 -39 -37 -95 -61 -95 -8 0 -11 -3 -8 -7 4 -3 0 -15
-10 -25 -26 -29 -9 -21 26 13 18 17 35 28 38 25 3 -3 -12 -22 -33 -42 -25 -23
-30 -32 -16 -24 39 20 64 50 59 71 -4 15 -2 18 7 10 9 -7 11 3 11 44 -1 61
-11 84 -13 30z"/>
<path d="M1587 3079 c6 -22 23 -26 23 -5 0 8 -6 16 -14 19 -10 4 -12 0 -9 -14z"/>
<path d="M1752 3075 c0 -16 2 -22 5 -12 2 9 2 23 0 30 -3 6 -5 -1 -5 -18z"/>
<path d="M2377 3094 c14 -6 8 -28 -19 -66 -16 -23 -17 -27 -3 -22 18 7 45 55
45 79 0 8 -8 15 -17 14 -10 0 -13 -3 -6 -5z"/>
<path d="M1318 3083 c7 -3 16 -2 19 1 4 3 -2 6 -13 5 -11 0 -14 -3 -6 -6z"/>
<path d="M1830 3085 c0 -6 6 -17 13 -24 10 -11 10 -14 0 -18 -7 -3 -13 -11
-13 -19 0 -9 -6 -11 -17 -7 -15 6 -16 5 -3 -9 13 -14 17 -12 36 16 13 19 18
33 12 37 -6 4 -14 13 -19 20 -5 8 -9 9 -9 4z"/>
<path d="M2195 3080 c-3 -5 -1 -10 4 -10 6 0 11 5 11 10 0 6 -2 10 -4 10 -3 0
-8 -4 -11 -10z"/>
<path d="M1492 3058 c7 -13 16 -25 19 -28 3 -3 5 -25 5 -50 -1 -38 -4 -45 -26
-51 -23 -7 -23 -8 5 -6 28 2 30 5 33 46 3 43 -22 111 -40 111 -5 0 -3 -10 4
-22z"/>
<path d="M2325 3068 c-4 -10 -11 -16 -15 -13 -5 3 -14 -1 -22 -8 -7 -8 -24
-19 -36 -26 -12 -7 -20 -16 -17 -21 3 -5 -3 -13 -12 -19 -10 -6 -13 -11 -6
-11 6 0 15 5 18 10 3 6 11 10 16 10 6 0 7 -4 4 -10 -3 -5 -4 -10 0 -10 11 0
83 49 91 62 5 10 4 11 -7 1 -21 -21 -34 -15 -15 6 10 11 16 26 13 33 -3 9 -7
8 -12 -4z m-18 -39 c-2 -24 -29 -42 -51 -33 -12 5 -9 11 17 29 17 13 33 24 34
24 1 1 1 -8 0 -20z"/>
<path d="M1245 3055 l-30 -15 45 6 c25 3 53 8 63 10 16 5 25 -10 10 -19 -5 -2
-2 -2 5 -1 13 4 45 -11 75 -35 12 -10 17 -11 17 -2 0 6 -7 14 -16 18 -13 5
-13 7 -2 15 8 5 4 6 -14 2 -19 -4 -29 -1 -36 12 -12 22 -78 28 -117 9z"/>
<path d="M1530 3065 c0 -5 5 -17 10 -25 5 -8 10 -10 10 -5 0 6 -5 17 -10 25
-5 8 -10 11 -10 5z"/>
<path d="M2487 3053 c-3 -5 -8 -26 -12 -47 -6 -28 -5 -37 4 -32 7 5 11 0 11
-13 0 -24 21 -124 25 -119 2 2 -1 39 -5 83 -6 53 -5 83 2 90 8 7 8 6 3 -4 -5
-9 -4 -12 3 -7 18 11 15 39 -4 32 -8 -3 -12 -2 -9 3 3 5 1 12 -4 15 -5 4 -12
3 -14 -1z"/>
<path d="M1465 3040 c-3 -5 -1 -10 4 -10 6 0 11 5 11 10 0 6 -2 10 -4 10 -3 0
-8 -4 -11 -10z"/>
<path d="M1263 3028 c1 -6 -7 -13 -18 -15 -16 -3 -17 -2 -5 6 20 14 11 14 -29
0 -18 -6 -30 -16 -28 -23 2 -6 -18 -29 -44 -51 -26 -22 -48 -46 -48 -52 -1 -7
-6 -13 -12 -13 -6 0 -8 7 -5 16 3 9 1 14 -5 12 -6 -2 -10 -7 -9 -12 1 -5 -4
-12 -10 -16 -22 -14 -20 -59 2 -71 14 -7 18 -8 14 0 -4 5 3 15 15 21 29 16 33
7 8 -21 -11 -13 -29 -34 -39 -46 -30 -35 -53 -73 -44 -73 5 0 4 -4 -2 -8 -6
-4 -32 -50 -58 -102 -26 -52 -54 -102 -63 -112 -18 -20 -38 -25 -27 -6 4 7 3
8 -4 4 -6 -4 -9 -13 -6 -21 3 -7 0 -24 -7 -37 -7 -13 -14 -27 -15 -33 -1 -5
-11 -37 -22 -70 -12 -33 -23 -85 -26 -115 -5 -52 -4 -50 18 30 12 47 30 102
39 122 8 20 12 39 9 43 -4 4 1 11 11 16 9 6 15 15 11 20 -3 5 0 16 6 24 10 12
15 11 32 -8 11 -12 17 -17 14 -11 -3 7 1 14 9 18 8 3 15 13 15 22 0 14 -3 13
-19 -5 -15 -18 -20 -19 -25 -6 -3 8 -1 15 4 15 6 0 22 25 36 55 15 30 31 55
36 55 5 0 8 6 6 13 -4 22 13 58 24 51 7 -4 8 -2 4 4 -4 7 -3 12 3 12 9 0 18
19 22 45 1 6 17 28 35 49 19 22 34 44 34 50 0 6 4 5 9 -3 6 -9 4 -19 -5 -28
-8 -8 -12 -18 -9 -23 3 -5 -7 -18 -21 -29 -15 -12 -24 -25 -19 -29 4 -4 10 -1
12 6 3 6 8 10 13 7 4 -2 16 5 26 16 16 17 16 22 4 30 -13 9 -13 10 0 6 8 -2
16 -10 16 -18 1 -8 2 -19 3 -26 1 -8 12 -6 36 8 19 11 39 18 44 15 5 -4 13 -1
17 5 4 8 3 9 -4 5 -7 -4 -12 -2 -12 3 0 6 6 11 13 12 6 1 23 2 36 2 23 2 44
27 22 27 -6 0 -11 -5 -11 -11 0 -6 -8 -9 -17 -7 -19 5 -87 -25 -98 -42 -3 -5
-11 -10 -17 -10 -6 0 -2 10 10 23 12 13 19 27 15 32 -5 4 -2 5 4 1 7 -4 21 -2
30 3 15 9 14 10 -10 11 -21 0 -30 -6 -34 -20 -6 -22 -18 -26 -28 -10 -8 13 45
59 68 60 11 0 15 4 11 12 -5 8 -2 9 10 5 9 -4 14 -3 11 2 -3 5 -1 12 5 16 6 4
8 11 4 16 -7 11 -114 10 -114 -1 0 -4 -13 -13 -30 -20 -16 -7 -30 -16 -30 -21
0 -5 -4 -9 -8 -9 -12 0 -11 32 0 47 6 7 15 10 20 7 6 -4 21 6 34 22 22 26 25
27 34 12 13 -22 40 -24 40 -3 0 9 10 15 23 16 21 1 21 1 -3 9 -19 6 -9 8 38 9
39 1 62 5 62 12 0 17 -102 4 -134 -16 -35 -24 -33 -9 4 22 17 13 28 29 25 34
-4 5 1 6 10 3 13 -5 13 -9 3 -23 -11 -14 -11 -14 2 -5 8 7 24 14 35 17 19 4
18 5 -2 6 -12 0 -24 5 -27 9 -5 8 12 8 94 2 14 -1 19 -4 13 -7 -7 -2 -13 -9
-13 -14 0 -6 8 -5 20 1 26 14 63 3 56 -16 -3 -8 -1 -14 4 -14 6 0 10 6 10 13
0 14 -15 40 -21 36 -2 -1 -15 1 -29 5 -14 5 -28 9 -32 10 -4 0 -13 7 -19 14
-16 15 -40 16 -36 0z m-33 -163 c0 -5 -56 -35 -66 -35 -4 0 1 7 12 15 18 14
17 14 -8 4 -20 -9 -25 -15 -18 -24 8 -9 4 -12 -15 -12 -27 0 -31 23 -7 42 13
10 102 19 102 10z m-90 -65 c0 -5 -5 -10 -11 -10 -5 0 -7 5 -4 10 3 6 8 10 11
10 2 0 4 -4 4 -10z"/>
<path d="M1706 3021 c-4 -6 -2 -11 4 -11 6 0 8 -4 5 -10 -3 -5 -1 -10 4 -10
13 0 14 10 2 29 -6 9 -11 10 -15 2z"/>
<path d="M1467 2994 c8 -13 12 -28 8 -34 -3 -5 -1 -10 4 -10 14 0 14 37 1 45
-6 4 -8 10 -6 14 3 4 -1 8 -9 8 -11 0 -11 -4 2 -23z"/>
<path d="M1750 2985 c0 -14 -5 -17 -39 -19 -9 -1 -15 -16 -18 -41 -2 -29 -1
-36 7 -25 5 8 10 23 10 33 0 9 5 17 11 17 5 0 7 -4 4 -10 -3 -5 -2 -10 3 -10
6 0 13 7 16 16 3 8 10 12 16 9 6 -4 8 -11 5 -16 -4 -5 -2 -9 3 -9 6 0 12 7 16
15 3 8 16 15 28 15 22 1 22 1 4 12 -15 8 -21 8 -24 0 -2 -7 -10 -12 -19 -12
-10 0 -12 6 -8 20 4 11 2 20 -4 20 -6 0 -11 -7 -11 -15z"/>
<path d="M2296 2975 c-11 -8 -16 -18 -12 -22 4 -5 -16 -14 -46 -20 l-53 -12
45 4 c25 2 54 7 65 11 14 6 16 4 10 -6 -5 -9 -4 -11 4 -6 6 4 9 12 5 17 -3 6
2 17 12 25 18 14 18 14 0 7 -13 -4 -17 -3 -12 5 9 15 5 15 -18 -3z"/>
<path d="M1617 2966 c-4 -10 -5 -21 -2 -24 9 -9 17 6 13 25 -3 17 -4 17 -11
-1z"/>
<path d="M1868 2973 c-21 -5 -23 -19 -5 -26 6 -3 -3 -6 -20 -6 -18 -1 -33 -6
-33 -12 0 -6 9 -8 20 -5 11 3 28 8 38 11 10 3 18 14 18 25 0 11 0 19 -1 19 0
-1 -8 -3 -17 -6z"/>
<path d="M2097 2959 c-22 -11 -44 -19 -50 -16 -7 2 -25 -2 -42 -9 l-30 -13 30
1 c56 1 158 35 149 49 -7 12 -13 11 -57 -12z"/>
<path d="M2597 2880 c2 -58 7 -107 9 -109 6 -7 3 88 -6 154 -6 45 -7 34 -3
-45z"/>
<path d="M1940 2950 c-25 -4 -35 -8 -23 -8 12 -1 27 -4 35 -7 7 -3 22 1 33 9
11 9 16 15 10 14 -5 0 -30 -4 -55 -8z"/>
<path d="M2155 2944 c-22 -9 -60 -22 -85 -29 l-45 -14 70 6 c71 6 98 13 54 14
-15 0 -4 7 31 19 30 10 46 18 35 19 -11 0 -38 -7 -60 -15z"/>
<path d="M2388 2935 c-16 -13 -24 -26 -19 -29 14 -9 19 -43 7 -43 -6 0 -24 -3
-39 -7 -16 -4 -27 -2 -27 4 0 5 5 10 11 10 5 0 8 4 4 9 -3 6 3 15 12 21 17 10
16 10 -2 8 -11 -2 -23 -7 -26 -11 -4 -5 -18 -10 -32 -10 -29 -2 -26 -17 4 -17
11 0 18 -3 15 -8 -2 -4 9 -15 26 -25 26 -15 29 -15 24 -2 -4 12 1 15 23 13 43
-3 61 16 51 53 -5 17 -6 37 -3 45 7 19 3 17 -29 -11z m18 -39 c0 -13 -5 -22
-9 -19 -5 3 -6 11 -3 18 3 8 0 16 -7 19 -7 2 -5 5 4 5 12 1 16 -7 15 -23z"/>
<path d="M2646 2919 c-29 -65 -26 -123 4 -104 8 5 7 11 0 20 -12 15 -4 59 9
51 4 -3 8 13 9 34 1 22 1 40 -1 40 -2 0 -11 -18 -21 -41z"/>
<path d="M1320 2940 c8 -5 22 -9 30 -9 10 0 8 3 -5 9 -27 12 -43 12 -25 0z"/>
<path d="M1578 2934 c-4 -3 -4 -12 -1 -20 3 -8 0 -14 -6 -14 -6 0 -11 -5 -11
-11 0 -8 4 -8 14 0 7 6 20 9 28 6 9 -4 28 5 44 19 22 20 24 25 9 20 -11 -4
-28 -14 -39 -23 -17 -15 -18 -15 -15 3 4 19 -12 32 -23 20z"/>
<path d="M2620 2925 c0 -8 5 -15 10 -15 6 0 10 7 10 15 0 8 -4 15 -10 15 -5 0
-10 -7 -10 -15z"/>
<path d="M1250 2920 c14 -4 34 -8 45 -8 16 0 15 2 -5 8 -14 4 -34 8 -45 8 -16
0 -15 -2 5 -8z"/>
<path d="M1905 2920 c-4 -6 5 -10 19 -10 14 0 26 5 26 10 0 6 -9 10 -19 10
-11 0 -23 -4 -26 -10z"/>
<path d="M1417 2913 c-12 -11 -8 -23 8 -23 8 0 15 7 15 15 0 16 -12 20 -23 8z"/>
<path d="M2200 2909 c-82 -14 -84 -20 -6 -14 38 2 74 9 80 15 12 12 5 12 -74
-1z"/>
<path d="M1466 2897 c3 -10 9 -15 12 -12 3 3 0 11 -7 18 -10 9 -11 8 -5 -6z"/>
<path d="M1965 2890 c-3 -5 -1 -10 4 -10 6 0 11 5 11 10 0 6 -2 10 -4 10 -3 0
-8 -4 -11 -10z"/>
<path d="M2000 2890 c0 -5 5 -10 10 -10 6 0 10 5 10 10 0 6 -4 10 -10 10 -5 0
-10 -4 -10 -10z"/>
<path d="M2104 2893 c4 -8 -5 -10 -34 -6 -23 3 -40 2 -40 -4 0 -6 12 -8 26 -5
20 4 25 2 19 -8 -5 -8 -4 -11 3 -6 5 3 12 2 14 -2 5 -13 73 -21 89 -11 12 8
12 10 -1 19 -8 5 -24 10 -35 10 -12 0 -27 6 -34 13 -9 7 -11 8 -7 0z"/>
<path d="M2357 2893 c-4 -3 -7 -11 -7 -17 0 -6 5 -5 12 2 6 6 9 14 7 17 -3 3
-9 2 -12 -2z"/>
<path d="M2455 2845 c4 -27 7 -63 7 -80 -1 -23 1 -26 8 -14 10 17 -3 126 -16
138 -4 3 -3 -16 1 -44z"/>
<path d="M1334 2863 c-16 -17 -16 -18 7 -24 13 -4 31 -7 39 -8 13 -1 13 0 0 9
-13 8 -13 10 2 10 11 0 15 5 12 15 -8 20 -39 19 -60 -2z"/>
<path d="M2656 2861 c-4 -7 -5 -15 -2 -18 9 -9 19 4 14 18 -4 11 -6 11 -12 0z"/>
<path d="M2204 2845 c-4 -8 -10 -13 -14 -10 -5 3 -11 1 -15 -5 -3 -5 1 -10 9
-10 10 0 13 -6 10 -17 -4 -11 -2 -14 3 -8 13 17 63 17 69 0 4 -8 14 -15 23
-15 9 0 34 -16 56 -36 22 -21 34 -33 26 -29 -10 6 -12 4 -7 -4 4 -6 13 -11 19
-10 19 2 57 -13 53 -20 -3 -4 4 -54 13 -111 16 -96 17 -106 2 -119 -14 -12
-14 -13 2 -7 15 5 18 1 16 -22 -2 -15 0 -32 4 -39 4 -6 12 -45 18 -85 21 -155
26 -178 34 -185 4 -5 5 8 2 27 -4 19 -11 76 -17 125 -6 50 -13 97 -15 105 -4
14 -13 75 -30 200 -3 25 -8 54 -10 65 -2 11 -4 30 -4 42 -1 15 -9 25 -25 29
-13 3 -37 19 -52 36 -28 30 -28 30 -4 17 14 -7 28 -13 32 -14 3 0 10 -4 15 -9
5 -5 2 -6 -6 -1 -10 5 -12 4 -7 -4 4 -6 11 -9 16 -6 4 3 11 -1 13 -7 4 -9 6
-8 6 3 1 8 -4 20 -11 27 -9 9 -9 12 0 12 7 0 12 7 12 15 0 8 -4 15 -10 15 -5
0 -10 -7 -10 -16 0 -12 -5 -14 -17 -9 -10 5 -28 9 -41 10 -21 1 -56 25 -37 25
12 0 -27 29 -39 30 -6 0 -5 -5 2 -12 15 -15 15 -28 1 -28 -5 0 -8 4 -4 10 3 5
-13 14 -35 20 -22 6 -40 16 -40 21 0 7 8 8 18 4 20 -8 22 -8 42 -6 13 1 13 2
0 11 -23 15 -60 12 -66 -5z"/>
<path d="M1250 2839 c0 -5 5 -7 10 -4 6 3 10 8 10 11 0 2 -4 4 -10 4 -5 0 -10
-5 -10 -11z"/>
<path d="M1276 2831 c-3 -4 -19 -11 -36 -15 -17 -3 -29 -10 -25 -15 3 -6 21
-4 47 5 22 7 50 14 62 15 20 0 21 1 1 9 -27 11 -43 12 -49 1z"/>
<path d="M2385 2824 c-17 -13 -18 -16 -5 -24 8 -5 20 -9 25 -9 6 0 4 3 -2 6
-7 2 -13 9 -13 14 0 14 28 11 33 -3 3 -7 4 -3 4 10 -1 26 -14 28 -42 6z"/>
<path d="M2541 2824 c0 -11 3 -14 6 -6 3 7 2 16 -1 19 -3 4 -6 -2 -5 -13z"/>
<path d="M1368 2803 c7 -3 16 -2 19 1 4 3 -2 6 -13 5 -11 0 -14 -3 -6 -6z"/>
<path d="M1003 2750 c-38 -41 -70 -92 -163 -255 l-23 -40 28 30 c15 17 38 52
52 79 14 27 31 56 39 64 8 7 14 19 14 26 0 7 9 24 20 37 71 85 82 100 79 102
-2 2 -23 -18 -46 -43z"/>
<path d="M1305 2791 c-3 -5 -1 -12 5 -16 5 -3 10 1 10 9 0 18 -6 21 -15 7z"/>
<path d="M2633 2721 c2 -66 5 -81 19 -84 22 -6 33 24 14 39 -9 6 -13 13 -10
16 3 3 6 29 8 57 2 43 -1 51 -15 51 -15 0 -17 -10 -16 -79z"/>
<path d="M2686 2771 c-7 -10 19 -88 36 -108 19 -23 41 27 28 63 -15 40 -52 65
-64 45z m39 -31 c13 -15 14 -20 5 -20 -11 0 -11 -3 -2 -12 15 -15 16 -28 2
-28 -5 0 -13 12 -16 28 -4 15 -11 33 -17 40 -16 21 8 14 28 -8z"/>
<path d="M979 2753 c-13 -16 -12 -17 4 -4 9 7 17 15 17 17 0 8 -8 3 -21 -13z"/>
<path d="M1170 2703 c-59 -41 -101 -119 -99 -183 1 -18 6 -11 17 25 21 61 49
115 62 115 5 0 18 9 29 21 11 12 24 18 30 15 7 -4 8 -1 5 8 -8 20 -14 20 -44
-1z"/>
<path d="M2332 2700 c0 -14 2 -19 5 -12 2 6 2 18 0 25 -3 6 -5 1 -5 -13z"/>
<path d="M1110 2698 c0 -10 -6 -15 -17 -12 -10 2 -31 -7 -48 -21 -16 -14 -25
-25 -19 -25 6 0 17 7 24 15 12 14 15 14 30 0 16 -14 19 -13 35 11 12 19 14 29
6 37 -8 8 -11 7 -11 -5z m-10 -28 c0 -5 -4 -10 -10 -10 -5 0 -10 5 -10 10 0 6
5 10 10 10 6 0 10 -4 10 -10z"/>
<path d="M2291 2698 c0 -7 4 -22 9 -33 7 -17 9 -15 9 13 1 17 -3 32 -9 32 -5
0 -10 -6 -9 -12z"/>
<path d="M907 2686 c-11 -8 -14 -17 -8 -20 5 -4 15 3 21 14 13 23 11 24 -13 6z"/>
<path d="M2350 2659 c0 -5 -4 -7 -10 -4 -14 9 -12 -1 3 -13 10 -8 13 -6 14 9
1 10 0 19 -3 19 -2 0 -4 -5 -4 -11z"/>
<path d="M2682 2643 c-5 -10 -7 -25 -4 -33 4 -11 0 -11 -16 3 -13 12 -22 15
-27 8 -3 -6 0 -11 7 -11 7 0 26 -21 41 -47 29 -48 26 -62 -15 -63 -10 0 -18
-4 -18 -9 0 -20 22 -22 46 -6 14 9 28 14 31 11 7 -7 33 13 33 24 0 5 -10 6
-21 3 -18 -5 -20 -3 -14 18 4 16 3 19 -3 11 -7 -10 -13 -7 -25 12 -22 33 -21
42 0 25 17 -13 17 -13 1 12 -11 17 -13 30 -6 42 5 9 7 17 4 17 -3 0 -9 -8 -14
-17z"/>
<path d="M1042 2623 c-21 -30 -37 -73 -27 -73 3 0 13 16 21 35 8 20 19 33 24
30 5 -3 12 0 16 6 5 8 3 9 -6 4 -10 -6 -12 -4 -7 8 9 25 1 21 -21 -10z"/>
<path d="M2375 2640 c-3 -6 1 -7 9 -4 18 7 21 14 7 14 -6 0 -13 -4 -16 -10z"/>
<path d="M2710 2631 c0 -11 3 -21 8 -21 8 0 35 -43 64 -100 15 -30 17 -32 18
-12 0 13 -20 52 -45 89 -32 46 -45 59 -45 44z"/>
<path d="M1006 2613 c-6 -14 -5 -15 5 -6 7 7 10 15 7 18 -3 3 -9 -2 -12 -12z"/>
<path d="M912 2565 c-17 -37 -14 -45 4 -12 9 16 14 31 11 33 -2 2 -9 -7 -15
-21z"/>
<path d="M990 2578 c0 -9 -9 -35 -19 -59 -11 -24 -25 -74 -32 -111 -7 -38 -16
-68 -19 -68 -4 0 -5 -12 -3 -27 4 -22 2 -25 -6 -13 -9 12 -10 8 -6 -17 3 -19
1 -33 -5 -33 -13 0 -13 -27 -1 -34 5 -4 26 64 46 149 20 85 41 153 46 149 5
-3 6 3 2 12 -4 10 -2 15 3 11 5 -3 9 5 9 19 -2 26 -15 47 -15 22z"/>
<path d="M1047 2573 c-12 -12 -7 -22 8 -17 8 4 15 10 15 15 0 11 -14 12 -23 2z"/>
<path d="M2641 2564 c-1 -23 25 -51 37 -40 4 4 0 13 -9 19 -9 7 -18 19 -22 27
-4 11 -6 9 -6 -6z"/>
<path d="M1110 2535 c-11 -13 -10 -14 4 -9 9 3 16 10 16 15 0 13 -6 11 -20 -6z"/>
<path d="M1034 2515 c-9 -14 -24 -55 -34 -92 -10 -38 -27 -99 -38 -138 -11
-38 -24 -96 -27 -127 -3 -31 -15 -81 -26 -110 -10 -29 -19 -63 -19 -75 0 -34
-11 -54 -36 -64 -18 -6 -24 -16 -24 -39 0 -21 4 -29 12 -24 7 5 8 3 3 -5 -4
-7 -9 -33 -11 -58 -3 -37 0 -46 14 -50 17 -4 18 -17 15 -139 -3 -92 0 -134 7
-129 6 3 10 -4 11 -17 1 -16 4 -12 11 15 6 20 16 37 24 37 10 0 14 13 13 48 0
26 -3 41 -6 34 -2 -6 -10 -9 -16 -5 -9 5 -9 3 -1 -8 8 -9 9 -22 3 -36 -9 -25
-29 -31 -30 -10 0 6 -2 30 -4 52 -3 24 -1 35 4 26 14 -22 19 1 12 55 -8 58 -5
74 12 70 7 -1 -2 4 -20 12 -36 16 -56 47 -23 37 25 -8 26 3 3 22 -17 13 -16
14 4 8 19 -5 22 -3 16 12 -4 10 -11 21 -17 25 -6 4 -7 10 -3 14 3 4 13 1 22
-6 9 -8 15 -8 15 -2 0 16 -22 27 -45 23 -11 -2 -17 0 -13 4 4 4 21 9 39 11 17
2 38 12 46 21 12 16 13 15 7 -12 -4 -16 -11 -40 -15 -52 -5 -13 -5 -23 -1 -23
4 0 14 -20 21 -45 7 -24 19 -49 27 -56 8 -6 14 -17 14 -23 0 -14 40 -52 87
-85 18 -12 61 -28 95 -35 74 -15 140 -6 213 31 57 28 195 150 156 138 -16 -5
-21 -4 -17 4 4 6 2 11 -3 11 -6 0 -11 -7 -11 -15 0 -8 -14 -29 -31 -47 l-31
-33 21 35 c12 19 27 46 33 60 24 58 33 71 36 61 2 -6 8 -8 14 -5 6 4 8 -4 4
-22 -5 -23 -2 -32 14 -42 17 -10 20 -10 20 3 0 8 -5 15 -11 15 -7 0 -5 10 5
25 21 32 20 47 -1 43 -11 -2 -17 2 -15 10 7 34 9 72 4 77 -10 10 -10 35 -1 35
6 0 8 4 5 9 -3 5 6 20 21 35 36 36 24 42 -14 6 l-31 -29 -11 27 c-19 45 -79
101 -121 112 -22 6 -40 14 -40 18 0 14 -183 5 -233 -11 -98 -31 -197 -118
-197 -174 0 -13 -8 -23 -21 -26 -19 -5 -21 -2 -16 31 7 46 39 142 48 142 3 0
2 -20 -4 -45 -6 -25 -14 -45 -19 -45 -4 0 -8 -10 -8 -22 1 -39 41 58 43 103 1
21 5 39 9 39 4 0 8 12 8 26 0 14 7 51 16 81 23 80 12 74 -19 -10 -16 -45 -26
-63 -26 -47 -1 24 36 141 52 168 5 6 5 16 2 22 -8 14 25 121 36 115 9 -6 10
-5 14 33 3 28 -1 28 -21 -3z m-87 -387 c-3 -8 -6 -5 -6 6 -1 11 2 17 5 13 3
-3 4 -12 1 -19z m420 -22 c62 -17 116 -56 133 -96 7 -16 15 -28 19 -26 17 11
3 -122 -17 -164 -12 -25 -22 -52 -22 -61 0 -28 -80 -109 -134 -136 -70 -36
-171 -37 -240 -2 -54 26 -110 85 -132 139 -32 75 -27 190 8 190 7 0 7 -4 1
-12 -6 -7 -13 -31 -16 -53 -7 -43 8 -29 17 16 2 13 8 33 12 43 6 16 4 18 -14
14 -27 -7 -37 6 -17 22 12 10 15 10 16 -1 0 -8 5 -3 10 11 5 14 26 36 47 50
20 14 39 27 42 30 10 12 68 31 116 39 74 13 114 12 171 -3z"/>
<path d="M1230 2085 c-14 -8 -20 -14 -15 -15 6 0 -3 -9 -19 -19 -17 -11 -33
-18 -37 -15 -4 2 -10 -2 -12 -8 -3 -8 -6 -6 -6 5 -1 9 5 17 12 17 6 0 21 7 31
15 19 15 19 15 -3 15 -12 0 -19 -4 -16 -10 3 -5 -2 -10 -13 -10 -21 0 -57 -37
-67 -71 -5 -13 -7 -41 -7 -63 2 -30 -1 -37 -13 -32 -13 4 -14 2 -5 -14 12 -23
35 -27 26 -5 -3 8 2 19 11 24 10 5 17 22 17 44 1 32 6 39 53 67 29 18 68 34
87 37 20 2 48 9 63 14 24 8 22 8 -14 5 -47 -4 -61 11 -15 16 36 4 110 -17 144
-42 38 -28 47 -25 12 5 -57 49 -163 69 -214 40z"/>
<path d="M1051 1998 c-6 -18 -15 -54 -20 -79 -6 -25 -13 -53 -17 -62 -3 -9 -2
-17 4 -17 11 0 19 28 27 89 3 22 10 52 15 67 6 15 9 29 6 31 -2 2 -9 -11 -15
-29z"/>
<path d="M1260 2010 c-9 -6 -10 -10 -3 -10 6 0 15 5 18 10 8 12 4 12 -15 0z"/>
<path d="M1214 1985 c-10 -8 -14 -15 -8 -15 6 0 17 7 24 15 16 19 9 19 -16 0z"/>
<path d="M1353 1958 c-19 -11 -33 -15 -33 -9 0 8 -6 9 -19 1 -11 -5 -28 -10
-39 -10 -10 0 -36 -15 -57 -34 -21 -19 -42 -33 -47 -30 -4 3 -8 -4 -8 -15 0
-11 -4 -23 -10 -26 -5 -3 -10 -14 -10 -23 0 -12 3 -13 11 -5 6 6 19 9 28 6 11
-3 12 -2 4 4 -8 6 -1 20 26 51 21 23 43 42 48 42 6 0 13 -14 17 -31 6 -30 7
-31 43 -24 21 3 42 11 48 16 16 16 38 10 30 -8 -5 -15 -4 -16 6 -5 7 6 21 12
30 12 10 0 21 4 24 10 4 6 -9 9 -32 9 -21 -1 -52 1 -69 5 -22 5 -36 3 -47 -8
-13 -14 -15 -13 -21 6 -7 27 2 38 15 18 6 -10 11 -12 17 -4 11 17 42 25 36 10
-3 -8 3 -12 18 -11 15 1 22 8 22 19 -2 20 -2 20 43 1 19 -8 45 -15 57 -14 16
0 14 3 -11 12 -17 7 -35 15 -39 20 -4 4 -18 7 -32 7 -17 0 -23 4 -18 15 3 8 4
15 3 14 -1 0 -17 -10 -34 -21z"/>
<path d="M1169 1913 c-13 -16 -12 -17 4 -4 9 7 17 15 17 17 0 8 -8 3 -21 -13z"/>
<path d="M1461 1895 c1 -19 18 -51 18 -35 0 8 -4 22 -9 30 -5 8 -9 11 -9 5z"/>
<path d="M1040 1845 c0 -8 -4 -15 -10 -15 -5 0 -9 -4 -7 -9 1 -5 -1 -9 -5 -10
-23 -3 -28 0 -22 12 5 8 3 8 -7 -1 -12 -11 -12 -15 1 -25 9 -7 21 -31 28 -55
7 -23 17 -40 22 -37 10 6 1 45 -11 45 -5 0 -9 8 -9 17 0 30 35 -18 38 -52 3
-38 18 -53 25 -25 3 12 0 23 -6 26 -7 2 -13 16 -13 30 -1 14 -10 31 -19 38
-15 11 -14 13 9 26 14 7 26 17 26 22 0 5 -4 6 -10 3 -5 -3 -10 1 -10 9 0 9 -4
16 -10 16 -5 0 -10 -7 -10 -15z"/>
<path d="M1206 1830 c-17 -6 -18 -7 -3 -13 10 -4 17 -1 17 6 0 7 3 8 8 2 9
-13 52 -17 52 -5 0 6 -6 10 -12 11 -7 0 -20 2 -28 3 -8 2 -24 0 -34 -4z"/>
<path d="M1398 1823 c7 -3 16 -2 19 1 4 3 -2 6 -13 5 -11 0 -14 -3 -6 -6z"/>
<path d="M1344 1795 c-17 -13 -17 -14 -1 -15 9 0 17 4 17 9 0 5 10 12 23 14
20 4 20 4 1 6 -11 0 -29 -6 -40 -14z"/>
<path d="M1396 1722 c-3 -4 4 -9 15 -9 23 -2 25 3 4 10 -8 4 -16 3 -19 -1z"/>
<path d="M2750 2462 c6 -13 14 -21 18 -18 3 4 -2 14 -12 24 -18 16 -18 16 -6
-6z"/>
<path d="M1040 2458 c0 -7 -7 -26 -15 -42 -17 -32 -13 -56 7 -55 10 0 10 2 1
6 -12 4 -11 9 15 60 15 28 15 43 2 43 -5 0 -10 -6 -10 -12z"/>
<path d="M2705 2460 c3 -5 8 -10 11 -10 2 0 4 5 4 10 0 6 -5 10 -11 10 -5 0
-7 -4 -4 -10z"/>
<path d="M2665 2450 c-3 -5 -2 -10 4 -10 5 0 13 5 16 10 3 6 2 10 -4 10 -5 0
-13 -4 -16 -10z"/>
<path d="M795 2439 c-11 -17 1 -21 15 -4 8 9 8 15 2 15 -6 0 -14 -5 -17 -11z"/>
<path d="M2725 2440 c-3 -5 -1 -10 5 -10 6 0 8 -4 5 -10 -3 -5 -1 -10 4 -10
13 0 14 27 2 35 -5 3 -12 1 -16 -5z"/>
<path d="M2824 2413 c8 -23 11 -45 8 -49 -4 -4 -2 -4 5 0 12 7 0 60 -19 81 -5
5 -2 -9 6 -32z"/>
<path d="M2920 2435 c6 -8 9 -19 5 -24 -3 -6 -1 -19 5 -28 9 -15 10 -14 4 6
-4 16 -3 21 5 17 6 -4 11 -4 11 1 -1 12 -26 43 -35 43 -4 0 -2 -7 5 -15z"/>
<path d="M2320 2427 c0 -2 7 -18 16 -35 21 -44 35 -41 16 3 -9 19 -20 35 -24
35 -4 0 -8 -2 -8 -3z"/>
<path d="M2405 2420 c-3 -5 1 -10 9 -10 9 0 16 5 16 10 0 6 -4 10 -9 10 -6 0
-13 -4 -16 -10z"/>
<path d="M2678 2423 c6 -2 18 -2 25 0 6 3 1 5 -13 5 -14 0 -19 -2 -12 -5z"/>
<path d="M2767 2415 c-9 -22 -9 -27 2 -21 5 3 11 -8 15 -24 4 -20 11 -30 23
-29 11 0 13 3 6 6 -7 2 -13 12 -13 21 -1 10 -7 28 -14 41 -11 20 -14 21 -19 6z"/>
<path d="M2590 2411 c0 -5 7 -11 14 -14 10 -4 13 -1 9 9 -6 15 -23 19 -23 5z"/>
<path d="M864 2375 c-8 -19 -12 -46 -8 -59 4 -16 1 -25 -11 -30 -14 -5 -16
-14 -11 -44 4 -22 3 -32 -2 -24 -6 8 -20 -21 -42 -88 -18 -55 -30 -103 -27
-107 3 -3 9 8 12 23 16 72 16 45 -2 -70 -3 -26 -2 -36 5 -32 6 3 11 14 11 24
-1 34 20 178 29 207 7 23 9 9 6 -56 -2 -47 -11 -108 -19 -135 -17 -56 -20
-180 -5 -189 9 -6 13 31 14 147 1 14 4 24 7 22 4 -2 9 20 13 49 4 28 9 68 12
87 4 28 3 32 -6 20 -9 -12 -10 -7 -5 20 6 36 27 114 50 188 16 48 12 54 -9 15
-8 -16 -15 -21 -16 -13 0 8 9 30 20 48 11 17 15 32 9 32 -5 0 -17 -16 -25 -35z
m-8 -121 c-4 -9 -9 -15 -11 -12 -3 3 -3 13 1 22 4 9 9 15 11 12 3 -3 3 -13 -1
-22z"/>
<path d="M1115 2400 c-3 -5 -1 -10 4 -10 6 0 11 5 11 10 0 6 -2 10 -4 10 -3 0
-8 -4 -11 -10z"/>
<path d="M2675 2392 c6 -4 12 -16 14 -27 5 -31 21 -56 32 -50 5 4 9 1 9 -4 0
-6 -5 -11 -11 -11 -6 0 -1 -17 11 -37 12 -21 23 -44 25 -53 6 -28 24 -70 31
-70 14 0 -5 70 -27 99 -12 16 -23 47 -25 67 -1 21 -10 43 -18 50 -9 6 -16 19
-16 28 0 9 -8 16 -17 16 -10 0 -14 -4 -8 -8z"/>
<path d="M2723 2376 c3 -6 10 -10 16 -8 6 1 11 -2 11 -8 0 -5 5 -10 10 -10 6
0 6 7 -1 18 -12 20 -42 26 -36 8z"/>
<path d="M2468 2313 c5 -21 7 -23 10 -9 2 10 0 22 -6 28 -6 6 -7 0 -4 -19z"/>
<path d="M2617 2333 c-4 -6 -3 -21 1 -34 11 -29 21 -12 12 21 -3 15 -9 20 -13
13z"/>
<path d="M1062 2291 c0 -17 1 -31 3 -31 7 0 12 39 5 49 -4 7 -7 -1 -8 -18z"/>
<path d="M1025 2280 c-4 -17 -5 -34 -2 -36 3 -3 8 9 12 26 4 17 5 34 2 36 -3
3 -8 -9 -12 -26z"/>
<path d="M2220 2300 c0 -5 6 -10 13 -11 6 0 3 -5 -8 -10 -15 -7 -11 -8 17 -5
21 3 40 0 43 -5 9 -13 86 -51 92 -45 3 3 -11 13 -31 22 -20 10 -36 21 -36 25
0 4 -13 10 -30 14 -16 4 -32 11 -35 16 -8 12 -25 12 -25 -1z"/>
<path d="M2400 2296 c0 -2 8 -10 18 -17 15 -13 16 -12 3 4 -13 16 -21 21 -21
13z"/>
<path d="M2696 2275 c4 -16 6 -38 6 -47 0 -10 3 -18 8 -18 6 0 6 -10 0 -25 -5
-13 -7 -41 -5 -61 3 -20 0 -54 -7 -75 -9 -31 -9 -42 1 -52 11 -10 12 -8 7 9
-4 14 -2 21 7 21 8 0 13 -13 13 -34 0 -19 -3 -28 -8 -20 -5 8 -8 7 -8 -5 0
-10 6 -18 14 -18 17 0 29 -44 21 -71 -10 -31 -29 -17 -38 27 -5 21 -12 50 -15
64 l-6 25 -3 -25 c-2 -14 -14 -47 -27 -75 -17 -38 -23 -70 -24 -132 -1 -54 2
-83 9 -83 7 0 10 17 8 44 -4 40 -2 43 14 34 10 -5 16 -16 13 -23 -3 -8 0 -17
6 -21 7 -5 9 4 4 27 -10 52 -10 53 -2 82 7 31 -4 35 -30 10 -17 -17 -18 -17
-11 0 4 10 7 21 7 23 0 3 5 2 10 -1 6 -4 10 7 10 24 0 17 5 31 10 31 10 0 14
-14 11 -37 -1 -7 2 -13 7 -13 5 0 8 -33 7 -74 -1 -55 -5 -78 -18 -90 -16 -16
-17 -16 -18 1 0 11 -3 13 -6 5 -3 -7 1 -19 7 -27 10 -12 10 -15 -1 -15 -12 0
-12 -2 0 -9 8 -5 11 -16 6 -30 -8 -26 -22 -27 -28 -3 -3 9 -5 2 -6 -16 0 -18
-4 -31 -9 -28 -4 2 -15 -2 -25 -9 -12 -8 -14 -15 -8 -20 6 -3 11 -17 11 -31 0
-13 4 -24 9 -24 6 0 7 15 4 33 -5 31 -2 35 30 50 19 10 39 17 44 17 5 0 10 6
11 13 8 97 16 125 46 157 17 19 44 43 59 53 16 11 24 23 21 32 -5 11 -2 13 12
8 16 -6 16 -4 -3 16 -16 17 -27 20 -47 15 -20 -5 -24 -10 -17 -17 19 -19 12
-43 -23 -81 l-33 -37 -1 49 c-1 43 1 51 19 55 19 5 20 11 15 49 -4 24 -7 59
-7 78 0 19 -5 40 -10 47 -6 7 -8 16 -6 20 3 5 2 27 -2 50 -6 29 -5 41 3 40 18
-3 8 55 -19 114 -16 33 -23 43 -19 24z m38 -100 c3 -9 0 -15 -9 -15 -9 0 -12
6 -9 15 4 8 7 15 9 15 2 0 5 -7 9 -15z m96 -299 c0 -15 -14 -35 -21 -30 -15 9
-10 34 6 34 8 0 15 -2 15 -4z"/>
<path d="M2441 2274 c0 -11 3 -14 6 -6 3 7 2 16 -1 19 -3 4 -6 -2 -5 -13z"/>
<path d="M1111 2264 c0 -11 3 -14 6 -6 3 7 2 16 -1 19 -3 4 -6 -2 -5 -13z"/>
<path d="M1890 2265 c0 -9 6 -12 15 -9 8 4 12 10 9 15 -8 14 -24 10 -24 -6z"/>
<path d="M2080 2276 c0 -2 9 -6 20 -9 11 -3 18 -1 14 4 -5 9 -34 13 -34 5z"/>
<path d="M718 2214 c-39 -85 -51 -118 -50 -126 1 -4 -4 -22 -12 -40 -7 -19
-10 -46 -6 -63 6 -26 8 -23 14 28 5 31 12 60 17 63 5 3 9 13 9 23 0 11 14 48
31 85 17 36 29 71 27 77 -2 7 -16 -15 -30 -47z"/>
<path d="M1921 2249 c-14 -5 -30 -8 -37 -5 -8 3 -22 -6 -32 -19 -11 -13 -22
-22 -25 -18 -4 3 -11 -7 -17 -22 -6 -15 -9 -30 -6 -32 2 -3 7 5 11 17 4 12 13
19 23 18 11 -2 17 3 16 14 -1 10 2 15 8 12 5 -3 15 -1 23 6 7 6 36 11 63 12
27 0 55 4 63 10 10 7 5 8 -18 4 -19 -3 -33 -1 -33 4 0 12 -7 12 -39 -1z"/>
<path d="M2780 2243 c0 -15 24 -40 43 -47 13 -4 17 -2 14 6 -2 7 -11 12 -21
10 -9 -2 -16 4 -16 12 0 8 -4 18 -10 21 -5 3 -10 2 -10 -2z"/>
<path d="M2456 2215 c2 -11 4 -26 4 -32 0 -7 4 -13 9 -13 6 0 9 9 8 20 -1 11
-4 20 -8 20 -4 0 -9 6 -12 13 -2 6 -3 3 -1 -8z"/>
<path d="M1005 2208 c-2 -13 -6 -43 -7 -68 -2 -25 -7 -48 -12 -51 -4 -4 -4 -8
0 -11 5 -2 20 7 34 20 l25 25 -25 -13 c-21 -11 -23 -11 -13 1 9 11 14 119 6
119 -2 0 -5 -10 -8 -22z"/>
<path d="M1087 2213 c-4 -3 -7 -11 -7 -17 0 -6 5 -5 12 2 6 6 9 14 7 17 -3 3
-9 2 -12 -2z"/>
<path d="M1481 2183 c18 -21 35 -40 37 -42 1 -2 5 -1 9 2 3 4 -3 18 -15 30
-12 13 -19 27 -15 32 5 4 0 5 -9 2 -10 -4 -18 -2 -18 3 0 6 -5 10 -12 10 -7 0
4 -17 23 -37z"/>
<path d="M1906 2207 c3 -10 9 -15 12 -12 3 3 0 11 -7 18 -10 9 -11 8 -5 -6z"/>
<path d="M876 2195 c-3 -9 -6 -26 -5 -38 1 -14 4 -9 9 13 9 37 7 52 -4 25z"/>
<path d="M1760 2200 c0 -5 7 -10 16 -10 8 0 12 5 9 10 -3 6 -10 10 -16 10 -5
0 -9 -4 -9 -10z"/>
<path d="M1380 2191 c0 -5 9 -7 21 -4 15 4 29 -3 47 -23 15 -16 26 -32 24 -37
-1 -5 2 -6 8 -2 5 3 10 -1 10 -10 0 -9 5 -13 10 -10 9 6 -31 70 -55 87 -14 11
-65 10 -65 -1z"/>
<path d="M1678 2193 c6 -2 18 -2 25 0 6 3 1 5 -13 5 -14 0 -19 -2 -12 -5z"/>
<path d="M1052 2165 c0 -16 2 -22 5 -12 2 9 2 23 0 30 -3 6 -5 -1 -5 -18z"/>
<path d="M897 2173 c-10 -19 -18 -67 -9 -58 10 11 25 65 18 65 -3 0 -7 -3 -9
-7z"/>
<path d="M1860 2170 c-8 -5 -12 -12 -9 -15 4 -3 12 1 19 10 14 17 11 19 -10 5z"/>
<path d="M746 2153 c-6 -14 -9 -15 -16 -4 -5 9 -12 -5 -20 -45 -17 -77 -20
-115 -9 -108 5 3 9 16 9 30 0 13 4 24 9 24 6 0 7 -16 4 -35 -4 -24 -2 -35 6
-35 7 0 9 -5 5 -12 -12 -19 -22 -88 -13 -88 4 0 10 15 12 33 2 19 4 9 5 -26 1
-32 5 -56 10 -54 4 3 8 -23 9 -56 1 -34 7 -63 12 -65 5 -2 7 -12 4 -22 -3 -11
-1 -20 5 -20 17 0 19 71 4 114 -17 48 -44 198 -43 241 0 16 -5 33 -12 37 -9 6
-9 10 2 17 9 6 10 11 2 15 -8 5 -5 17 10 37 12 17 19 32 16 35 -2 3 -8 -3 -11
-13z"/>
<path d="M1338 2163 c6 -2 18 -2 25 0 6 3 1 5 -13 5 -14 0 -19 -2 -12 -5z"/>
<path d="M1415 2145 c17 -14 35 -25 40 -25 6 0 -3 11 -20 25 -16 13 -34 24
-40 24 -5 0 4 -11 20 -24z"/>
<path d="M2809 2163 c-4 -27 -5 -112 -1 -108 7 7 14 115 8 115 -4 0 -7 -3 -7
-7z"/>
<path d="M2835 2160 c3 -5 8 -10 11 -10 2 0 4 5 4 10 0 6 -5 10 -11 10 -5 0
-7 -4 -4 -10z"/>
<path d="M2647 2141 c-4 -17 -3 -21 5 -13 5 5 8 16 6 23 -3 8 -7 3 -11 -10z"/>
<path d="M1810 2125 c0 -8 2 -15 4 -15 2 0 6 7 10 15 3 8 1 15 -4 15 -6 0 -10
-7 -10 -15z"/>
<path d="M2878 2105 c3 -21 10 -35 18 -35 8 0 14 5 14 10 0 6 -4 10 -10 10 -5
0 -7 6 -4 13 3 8 -1 19 -8 25 -11 9 -13 4 -10 -23z"/>
<path d="M2595 2106 c10 -14 19 -26 22 -26 7 0 -17 39 -28 46 -6 3 -3 -5 6
-20z"/>
<path d="M2742 2115 c0 -35 13 -71 21 -58 4 7 1 27 -7 45 -10 23 -14 27 -14
13z"/>
<path d="M1553 2095 c0 -7 6 -11 14 -8 7 3 13 6 13 8 0 2 -6 5 -13 8 -8 3 -14
-1 -14 -8z"/>
<path d="M1601 2075 c-66 -31 -68 -32 -54 -46 8 -8 19 -5 40 10 18 13 60 27
109 35 43 8 68 14 54 15 -14 1 -41 3 -60 6 -24 3 -52 -3 -89 -20z"/>
<path d="M1780 2071 c0 -5 -30 -9 -66 -9 -49 0 -71 -5 -83 -17 -15 -16 -14
-17 7 -6 26 14 102 11 118 -4 6 -6 10 -25 10 -42 -1 -18 2 -29 6 -25 8 8 20
112 13 112 -3 0 -5 -4 -5 -9z"/>
<path d="M2850 2050 c-13 -8 -13 -10 1 -10 21 0 28 -18 22 -52 -3 -14 0 -28 5
-32 6 -3 9 15 8 49 -1 55 -8 63 -36 45z"/>
<path d="M863 2020 c-1 -11 2 -20 8 -20 5 0 9 9 9 20 0 11 -4 20 -8 20 -4 0
-8 -9 -9 -20z"/>
<path d="M2800 2025 c0 -2 11 -29 25 -59 14 -30 25 -62 25 -70 0 -33 16 -14
18 22 2 27 0 33 -8 22 -8 -13 -10 -13 -11 3 -3 33 -28 87 -41 87 -4 0 -8 -2
-8 -5z"/>
<path d="M2780 2003 c0 -14 19 -38 25 -32 8 8 -5 39 -16 39 -5 0 -9 -3 -9 -7z"/>
<path d="M1713 1975 c0 -8 4 -12 9 -9 4 3 8 9 8 15 0 5 -4 9 -8 9 -5 0 -9 -7
-9 -15z"/>
<path d="M701 1964 c0 -11 3 -14 6 -6 3 7 2 16 -1 19 -3 4 -6 -2 -5 -13z"/>
<path d="M1611 1964 c0 -11 3 -14 6 -6 3 7 2 16 -1 19 -3 4 -6 -2 -5 -13z"/>
<path d="M1729 1953 c-13 -16 -12 -17 4 -4 9 7 17 15 17 17 0 8 -8 3 -21 -13z"/>
<path d="M2760 1963 c1 -5 8 -19 16 -33 8 -14 13 -17 10 -7 -3 10 -6 25 -6 33
0 8 -4 14 -10 14 -5 0 -10 -3 -10 -7z"/>
<path d="M1590 1936 c0 -2 7 -6 15 -10 8 -3 15 -1 15 4 0 6 -7 10 -15 10 -8 0
-15 -2 -15 -4z"/>
<path d="M1730 1916 c0 -2 7 -9 15 -16 13 -11 14 -10 9 4 -5 14 -24 23 -24 12z"/>
<path d="M2805 1910 c3 -5 10 -10 16 -10 5 0 9 5 9 10 0 6 -7 10 -16 10 -8 0
-12 -4 -9 -10z"/>
<path d="M1583 1895 c0 -11 4 -12 14 -4 7 6 13 13 13 15 0 2 -6 4 -13 4 -8 0
-14 -7 -14 -15z"/>
<path d="M2892 1897 c-6 -7 -7 -19 -3 -26 6 -9 10 -5 13 13 6 30 5 31 -10 13z"/>
<path d="M1612 1891 c-8 -4 -12 -20 -10 -35 3 -27 3 -27 14 8 6 20 11 36 10
36 -1 0 -7 -4 -14 -9z"/>
<path d="M2517 1879 c6 -22 23 -26 23 -5 0 8 -6 16 -14 19 -10 4 -12 0 -9 -14z"/>
<path d="M2580 1885 c0 -5 5 -17 10 -25 5 -8 10 -10 10 -5 0 6 -5 17 -10 25
-5 8 -10 11 -10 5z"/>
<path d="M710 1860 c0 -49 24 -206 32 -211 6 -4 10 -20 10 -35 0 -16 3 -33 7
-39 7 -9 36 -107 45 -150 2 -11 4 4 5 33 0 29 -3 51 -7 48 -9 -5 -7 66 3 144
4 32 3 41 -4 30 -6 -8 -11 -31 -11 -50 0 -19 -5 -42 -11 -50 -8 -12 -9 -8 -8
15 2 35 -10 87 -20 81 -3 -2 -7 6 -8 17 -7 102 -17 177 -24 177 -5 0 -9 -5 -9
-10z m77 -322 c-3 -8 -6 -5 -6 6 -1 11 2 17 5 13 3 -3 4 -12 1 -19z"/>
<path d="M691 1834 c0 -11 3 -14 6 -6 3 7 2 16 -1 19 -3 4 -6 -2 -5 -13z"/>
<path d="M2527 1843 c-3 -5 -1 -26 3 -48 l8 -40 1 48 c1 45 -2 56 -12 40z"/>
<path d="M2757 1833 c-4 -3 -7 -11 -7 -17 0 -6 5 -5 12 2 6 6 9 14 7 17 -3 3
-9 2 -12 -2z"/>
<path d="M896 1795 c-3 -8 -1 -15 4 -15 6 0 10 7 10 15 0 8 -2 15 -4 15 -2 0
-6 -7 -10 -15z"/>
<path d="M880 1760 c0 -5 12 -10 26 -10 14 0 23 4 19 10 -3 6 -15 10 -26 10
-10 0 -19 -4 -19 -10z"/>
<path d="M2359 1733 c-13 -17 -13 -17 6 -3 11 8 22 16 24 17 2 2 0 3 -6 3 -6
0 -17 -8 -24 -17z"/>
<path d="M2833 1742 c-7 -4 -9 -13 -4 -21 6 -9 10 -7 14 8 3 12 4 21 4 21 -1
0 -7 -4 -14 -8z"/>
<path d="M1568 1723 c7 -3 16 -2 19 1 4 3 -2 6 -13 5 -11 0 -14 -3 -6 -6z"/>
<path d="M1860 1720 c0 -5 5 -12 11 -15 6 -4 8 -14 5 -22 -3 -8 -1 -11 5 -8
14 9 57 -43 65 -79 5 -25 1 -34 -26 -59 -37 -33 -34 -47 4 -22 54 36 46 106
-19 169 -25 25 -45 40 -45 36z"/>
<path d="M2325 1710 c-3 -5 1 -10 10 -10 9 0 13 5 10 10 -3 6 -8 10 -10 10 -2
0 -7 -4 -10 -10z"/>
<path d="M906 1702 c-2 -4 4 -8 15 -8 10 0 19 4 19 8 0 4 -6 8 -14 8 -8 0 -17
-4 -20 -8z"/>
<path d="M2537 1693 c-4 -3 -7 -22 -7 -41 0 -44 10 -36 15 12 3 38 3 40 -8 29z"/>
<path d="M1587 1683 c-4 -3 -7 -11 -7 -17 0 -6 5 -5 12 2 6 6 9 14 7 17 -3 3
-9 2 -12 -2z"/>
<path d="M2290 1678 c0 -4 12 -6 28 -5 17 1 26 -3 25 -10 -2 -7 2 -13 7 -13
14 0 12 16 -3 28 -14 12 -57 12 -57 0z"/>
<path d="M2821 1673 c0 -12 -7 -23 -13 -25 -9 -3 -13 -32 -14 -94 0 -85 -13
-134 -34 -134 -6 0 -10 5 -10 11 0 16 -30 43 -38 34 -4 -4 -1 -10 6 -12 6 -3
12 -13 12 -24 0 -10 6 -18 13 -16 6 1 11 -6 11 -15 -1 -9 4 -19 11 -22 8 -3
13 4 13 19 0 13 7 31 16 40 12 13 16 37 16 109 0 53 5 97 11 103 6 6 9 19 6
29 -4 16 -5 16 -6 -3z"/>
<path d="M910 1666 c0 -8 -3 -22 -7 -32 -5 -14 -2 -13 15 4 26 26 28 42 7 42
-8 0 -15 -6 -15 -14z"/>
<path d="M1514 1666 c-8 -8 -7 -15 2 -23 9 -9 15 -9 23 1 15 18 -9 40 -25 22z"/>
<path d="M2265 1670 c-3 -5 -1 -10 4 -10 6 0 11 5 11 10 0 6 -2 10 -4 10 -3 0
-8 -4 -11 -10z"/>
<path d="M2624 1645 c-3 -13 -4 -30 -1 -37 3 -7 6 0 6 15 1 16 5 26 11 22 6
-3 7 1 4 9 -8 22 -13 20 -20 -9z"/>
<path d="M955 1649 c-4 -6 -4 -13 -1 -16 3 -4 6 -1 6 6 0 8 5 7 16 -4 9 -9 19
-14 21 -11 5 5 -21 36 -31 36 -3 0 -8 -5 -11 -11z"/>
<path d="M1571 1634 c0 -11 3 -14 6 -6 3 7 2 16 -1 19 -3 4 -6 -2 -5 -13z"/>
<path d="M964 1609 c-3 -5 0 -9 5 -9 6 0 11 -6 11 -12 0 -7 13 -13 30 -14 17
-1 30 3 30 7 0 5 -7 9 -16 9 -9 0 -14 6 -11 13 5 14 -40 20 -49 6z"/>
<path d="M1489 1615 c-14 -22 -19 -73 -10 -98 9 -22 17 -27 43 -26 33 0 33 0
8 12 -37 17 -50 38 -38 60 10 19 7 69 -3 52z"/>
<path d="M2530 1581 c0 -6 5 -13 10 -16 6 -3 10 1 10 9 0 9 -4 16 -10 16 -5 0
-10 -4 -10 -9z"/>
<path d="M1764 1565 c-32 -14 -60 -42 -52 -51 3 -3 23 6 43 21 40 27 93 33
113 13 7 -7 12 -8 12 -2 0 34 -60 43 -116 19z"/>
<path d="M2830 1565 c0 -8 4 -15 10 -15 5 0 7 7 4 15 -4 8 -8 15 -10 15 -2 0
-4 -7 -4 -15z"/>
<path d="M1063 1563 c9 -2 23 -2 30 0 6 3 -1 5 -18 5 -16 0 -22 -2 -12 -5z"/>
<path d="M2653 1558 c-4 -7 -8 -30 -8 -50 0 -27 5 -38 17 -42 28 -7 32 13 7
40 -22 24 -22 24 -2 24 12 0 24 -6 26 -12 4 -8 6 -7 6 3 1 9 -6 20 -15 23 -8
3 -12 10 -9 16 9 15 -12 12 -22 -2z"/>
<path d="M890 1549 c0 -5 5 -7 10 -4 6 3 10 8 10 11 0 2 -4 4 -10 4 -5 0 -10
-5 -10 -11z"/>
<path d="M991 1478 c5 -136 16 -166 17 -41 0 62 -4 116 -9 119 -6 4 -9 -26 -8
-78z"/>
<path d="M1552 1548 c-19 -19 -14 -26 13 -20 20 3 24 1 19 -12 -3 -9 -1 -16 5
-16 6 0 11 5 11 10 0 7 7 7 21 0 16 -9 19 -18 15 -38 -6 -25 -5 -26 9 -8 10
13 27 19 55 19 25 0 40 5 40 12 0 8 -13 11 -37 9 -30 -2 -46 3 -75 27 -40 32
-57 36 -76 17z"/>
<path d="M915 1484 c-10 -10 -13 -24 -9 -36 4 -13 1 -24 -7 -29 -9 -6 -10 -9
-2 -9 8 0 10 -12 6 -36 -6 -35 -5 -36 16 -25 11 7 21 18 21 26 0 8 5 15 10 15
6 0 10 -13 10 -30 0 -16 5 -30 10 -30 12 0 9 52 -3 61 -5 4 -12 22 -17 40 l-7
34 -10 -25 c-6 -15 -7 -27 -1 -31 5 -3 3 -11 -4 -17 -10 -8 -13 -1 -13 33 -1
24 2 42 6 39 4 -2 12 3 18 10 17 21 -4 30 -24 10z"/>
<path d="M1830 1484 c0 -10 6 -14 15 -10 14 5 21 -11 16 -37 -1 -5 3 -5 9 -2
17 11 8 -28 -10 -42 -20 -17 -30 -16 -30 3 0 8 -4 13 -9 9 -5 -3 -12 -1 -16 4
-3 6 -12 8 -20 5 -8 -4 -13 -10 -10 -14 3 -5 1 -11 -5 -15 -5 -3 -10 1 -10 9
0 9 0 18 0 21 0 3 3 5 7 4 3 0 10 6 15 15 5 9 16 16 23 16 8 0 15 9 15 20 0
11 -4 20 -10 20 -5 0 -10 -6 -10 -14 0 -8 -7 -16 -15 -20 -8 -3 -15 0 -15 7 0
8 -3 8 -9 -2 -5 -7 -14 -10 -21 -6 -9 5 -10 2 -6 -13 5 -14 2 -21 -9 -24 -12
-2 -10 -9 10 -33 l25 -30 19 24 c19 24 19 24 32 4 7 -12 18 -19 25 -16 7 2 20
-7 29 -21 17 -25 45 -26 45 -1 0 7 5 15 11 17 6 2 9 13 7 23 -5 20 -5 20 -13
0 -14 -33 -45 -47 -45 -21 0 8 6 16 13 19 21 7 15 80 -10 100 -26 21 -43 22
-43 1z"/>
<path d="M1930 1492 c0 -7 -5 -10 -11 -6 -8 4 -9 -1 -4 -16 5 -15 4 -20 -4
-16 -12 8 -14 -4 -5 -28 6 -16 25 -23 23 -8 -3 18 2 32 12 32 6 0 8 -7 4 -17
-4 -13 -3 -15 5 -7 7 7 6 20 -4 45 -9 19 -15 28 -16 21z"/>
<path d="M1560 1482 c0 -31 11 -40 36 -28 26 12 32 26 10 26 -8 0 -21 3 -30 6
-9 3 -16 2 -16 -4z"/>
<path d="M2520 1479 c0 -5 5 -7 10 -4 6 3 10 8 10 11 0 2 -4 4 -10 4 -5 0 -10
-5 -10 -11z"/>
<path d="M2587 1477 c-4 -10 2 -13 20 -9 18 3 21 7 11 13 -18 12 -25 11 -31
-4z"/>
<path d="M2740 1479 c0 -5 5 -7 10 -4 6 3 10 8 10 11 0 2 -4 4 -10 4 -5 0 -10
-5 -10 -11z"/>
<path d="M1488 1446 c-10 -7 -15 -15 -12 -19 9 -8 -19 -47 -35 -47 -7 0 -20
-8 -27 -17 -7 -10 -16 -14 -21 -9 -4 5 -2 11 5 13 6 3 12 14 12 26 0 17 -7 12
-29 -23 -16 -25 -27 -48 -25 -52 5 -8 -15 -22 -22 -15 -3 3 2 19 11 36 20 40
5 40 -17 0 -26 -45 -24 -59 10 -50 16 5 26 14 26 24 -1 9 4 18 11 21 20 7 15
-45 -6 -68 -20 -21 -24 -36 -11 -36 5 0 15 12 22 28 8 17 14 22 17 14 3 -8 1
-18 -5 -24 -7 -7 -7 -19 -2 -34 6 -14 5 -26 -1 -29 -5 -4 -8 -1 -7 7 2 8 -4
12 -16 10 -12 -2 -15 1 -11 8 6 9 2 9 -14 1 -11 -7 -21 -19 -21 -29 0 -15 -2
-15 -10 -2 -5 8 -10 33 -10 55 l0 40 -20 -30 c-23 -34 -27 -14 -6 27 8 15 11
30 6 33 -12 7 -32 -31 -37 -73 -4 -25 -2 -32 7 -27 7 5 7 0 -2 -14 -11 -18
-11 -23 2 -31 13 -8 12 -10 -4 -10 -12 0 -16 -5 -12 -16 3 -9 6 -18 6 -20 0
-2 5 -4 10 -4 6 0 10 6 10 14 0 7 7 19 15 26 19 16 19 31 0 24 -11 -5 -14 -2
-9 12 13 36 17 36 30 5 15 -37 52 -41 45 -6 -3 19 -2 19 17 2 11 -10 26 -15
36 -11 19 7 20 18 6 45 -7 11 -7 19 -1 19 5 0 11 -6 14 -12 3 -9 11 -5 22 10
9 13 23 21 30 18 7 -2 15 4 18 15 7 28 6 34 -5 31 -6 -2 -8 6 -5 17 3 12 -1
22 -9 25 -8 3 -14 0 -14 -7 0 -8 -4 -6 -10 3 -8 12 -10 12 -10 1 0 -8 -2 -12
-5 -9 -9 9 6 38 16 32 6 -3 16 0 24 6 11 10 15 10 15 1 0 -7 5 -9 10 -6 6 3
10 0 10 -7 0 -9 3 -9 10 2 13 20 13 40 -1 40 -5 0 -7 -4 -4 -10 3 -5 -1 -10
-9 -10 -9 0 -16 3 -16 8 0 12 40 33 50 27 6 -4 10 -2 10 4 0 5 3 16 6 25 8 20
-33 22 -58 2z m-41 -182 c-30 -30 -49 -25 -28 8 7 11 8 17 2 14 -5 -4 -15 2
-20 13 -9 17 -7 20 12 23 12 2 31 -4 41 -13 19 -18 19 -19 -7 -45z"/>
<path d="M592 1430 c0 -14 2 -19 5 -12 2 6 2 18 0 25 -3 6 -5 1 -5 -13z"/>
<path d="M1995 1440 c-4 -7 -4 -15 1 -19 5 -3 11 -15 12 -26 4 -18 2 -18 -22
4 l-26 24 0 -32 c0 -31 2 -33 27 -26 23 5 25 4 14 -9 -11 -13 -11 -16 3 -16 9
0 16 8 16 19 0 11 4 21 9 23 5 2 1 18 -8 37 -13 23 -20 30 -26 21z"/>
<path d="M2561 1437 c9 -7 21 -22 28 -34 6 -13 17 -23 23 -23 9 0 9 3 1 11 -6
6 -10 17 -9 23 2 6 1 7 -2 3 -2 -5 -11 1 -19 12 -8 12 -20 21 -26 21 -7 -1 -6
-5 4 -13z"/>
<path d="M1636 1414 c-23 -22 -30 -24 -37 -13 -7 10 -9 8 -7 -10 4 -32 24 -38
31 -10 3 12 10 18 17 14 8 -5 7 -14 -4 -31 -19 -27 -21 -54 -5 -54 6 0 8 7 5
16 -4 12 -2 15 9 10 11 -4 15 1 15 20 0 14 4 23 9 19 5 -3 13 0 17 6 5 8 3 9
-6 4 -10 -6 -12 0 -8 24 6 38 1 38 -36 5z"/>
<path d="M1815 1430 c3 -5 12 -7 20 -3 21 7 19 13 -6 13 -11 0 -18 -4 -14 -10z"/>
<path d="M2050 1431 c0 -5 16 -16 35 -25 31 -15 34 -20 24 -37 -7 -15 -7 -24
1 -34 8 -10 7 -14 -6 -17 -15 -3 -14 -6 4 -28 18 -22 21 -23 27 -8 4 9 -1 30
-9 47 -17 32 -10 46 14 30 13 -7 13 -9 1 -9 -11 0 -9 -4 5 -15 30 -22 36 -18
19 15 -9 17 -20 30 -25 30 -6 0 -10 8 -10 17 0 9 -3 13 -6 10 -4 -3 -18 3 -32
13 -27 21 -42 25 -42 11z"/>
<path d="M1427 1405 c3 -8 9 -12 14 -9 12 7 11 11 -5 17 -10 4 -13 1 -9 -8z"/>
<path d="M1553 1400 c-3 -11 -10 -17 -15 -13 -6 3 -9 0 -6 -8 2 -7 -4 -23 -14
-34 -18 -19 -18 -20 -1 -27 28 -10 33 -9 33 8 0 9 -5 13 -12 9 -7 -4 -5 0 5 8
21 17 41 77 25 77 -5 0 -12 -9 -15 -20z"/>
<path d="M2550 1416 c0 -15 24 -66 31 -66 12 0 11 6 -6 40 -13 26 -25 38 -25
26z"/>
<path d="M1317 1397 c-3 -8 1 -14 9 -14 16 0 19 13 5 21 -5 3 -11 0 -14 -7z"/>
<path d="M2047 1370 c-9 -11 -17 -30 -17 -43 0 -20 2 -19 16 8 22 42 27 45 19
8 -4 -22 -3 -33 5 -33 6 0 9 -4 5 -9 -3 -5 0 -13 6 -17 9 -5 10 0 6 17 -4 13
-7 39 -7 57 0 37 -9 40 -33 12z"/>
<path d="M1691 1358 c-24 -21 -21 -39 3 -19 10 8 15 9 18 1 3 -11 38 -3 38 9
0 3 -8 11 -19 18 -15 10 -23 8 -40 -9z"/>
<path d="M2610 1360 c0 -5 5 -10 11 -10 5 0 7 5 4 10 -3 6 -8 10 -11 10 -2 0
-4 -4 -4 -10z"/>
<path d="M2715 1356 c-14 -15 -13 -70 1 -84 9 -8 15 -7 25 4 10 12 9 13 -7 8
-18 -7 -18 -6 1 16 l20 23 -25 -8 c-21 -7 -23 -6 -13 7 7 8 10 18 6 21 -3 4
-1 7 5 7 5 0 12 -5 14 -12 3 -7 7 -4 12 7 4 11 4 16 0 12 -4 -4 -12 -3 -18 2
-7 5 -15 4 -21 -3z"/>
<path d="M920 1335 c-10 -12 -10 -23 -2 -48 7 -18 10 -22 7 -8 -2 13 1 33 6
43 13 25 6 33 -11 13z"/>
<path d="M1950 1340 c0 -6 -4 -8 -10 -5 -5 3 -10 -3 -10 -14 0 -26 1 -26 22
-1 10 11 13 22 8 25 -6 4 -10 1 -10 -5z"/>
<path d="M2195 1331 c3 -5 1 -12 -5 -16 -6 -4 -7 -11 -4 -17 4 -6 10 -5 15 3
10 16 11 13 13 -58 2 -42 -6 -51 -30 -35 -15 10 -25 40 -14 47 5 3 11 1 15 -5
7 -12 25 -4 25 11 0 6 -5 7 -10 4 -6 -3 -15 6 -22 22 l-11 28 -8 -44 c-6 -32
-4 -51 7 -74 12 -23 18 -27 25 -16 7 11 11 11 21 -4 13 -18 14 -18 15 0 1 10
4 36 7 58 6 44 -8 91 -30 99 -8 3 -12 2 -9 -3z"/>
<path d="M2435 1329 c-18 -8 -17 -9 4 -5 14 3 32 0 40 -7 11 -10 13 -9 9 3 -6
18 -26 22 -53 9z"/>
<path d="M2557 1321 c3 -10 0 -22 -6 -25 -17 -11 -13 -23 11 -46 19 -18 21
-22 8 -30 -13 -9 -13 -11 0 -20 19 -13 30 -13 30 0 0 6 -4 10 -8 10 -5 0 -8
15 -7 34 0 25 -3 32 -13 28 -11 -4 -13 2 -8 26 4 16 3 33 -2 36 -6 3 -8 -2 -5
-13z"/>
<path d="M2600 1329 c0 -14 29 -17 34 -4 3 9 -2 13 -15 12 -10 -1 -19 -4 -19
-8z"/>
<path d="M943 1303 c1 -16 5 -31 10 -34 4 -3 3 -18 -3 -34 -8 -22 -8 -30 2
-36 7 -5 14 -13 14 -19 1 -5 2 -14 3 -20 0 -5 8 -10 16 -10 8 0 14 3 13 8 -1
4 3 17 10 30 8 14 9 22 2 22 -5 0 -10 -4 -10 -10 0 -5 -5 -10 -11 -10 -7 0 -5
10 6 26 9 14 14 28 11 32 -3 3 -6 1 -6 -5 0 -6 -9 -13 -21 -16 -17 -5 -18 -3
-8 10 14 16 20 53 8 53 -3 0 -9 9 -12 20 -8 30 -25 24 -24 -7z"/>
<path d="M1980 1310 c0 -11 5 -20 10 -20 6 0 10 9 10 20 0 11 -4 20 -10 20 -5
0 -10 -9 -10 -20z"/>
<path d="M2510 1308 c0 -4 7 -8 15 -8 8 0 15 4 15 8 0 5 -7 9 -15 9 -8 0 -15
-4 -15 -9z"/>
<path d="M682 1290 c1 -13 9 -25 16 -28 17 -5 15 23 -4 39 -14 11 -15 10 -12
-11z"/>
<path d="M2590 1300 c0 -5 5 -10 11 -10 5 0 7 5 4 10 -3 6 -8 10 -11 10 -2 0
-4 -4 -4 -10z"/>
<path d="M2020 1293 c0 -5 5 -15 10 -23 9 -13 11 -13 20 0 5 8 10 20 10 25 0
6 -5 3 -10 -5 -6 -10 -10 -11 -10 -2 0 6 -4 12 -10 12 -5 0 -10 -3 -10 -7z"/>
<path d="M2365 1270 c9 -16 23 -30 33 -30 15 1 15 2 1 13 -8 7 -18 20 -22 30
-3 9 -11 17 -17 17 -6 0 -4 -12 5 -30z"/>
<path d="M2459 1278 c9 -24 31 -37 31 -18 0 12 -24 40 -34 40 -3 0 -2 -10 3
-22z"/>
<path d="M2771 1284 c0 -11 3 -14 6 -6 3 7 2 16 -1 19 -3 4 -6 -2 -5 -13z"/>
<path d="M2426 1273 c-6 -14 -5 -15 5 -6 7 7 10 15 7 18 -3 3 -9 -2 -12 -12z"/>
<path d="M1322 1264 c-8 -9 -9 -14 -2 -14 6 0 9 -4 5 -9 -3 -5 -1 -12 4 -15 5
-3 11 6 14 19 5 30 -3 38 -21 19z"/>
<path d="M2516 1267 c3 -10 9 -15 12 -12 3 3 0 11 -7 18 -10 9 -11 8 -5 -6z"/>
<path d="M2091 1263 c-1 -7 -8 -10 -18 -6 -11 3 -7 -2 7 -13 14 -10 29 -18 33
-16 5 1 11 -7 14 -18 3 -11 9 -20 14 -20 12 0 -1 53 -15 62 -5 4 -13 5 -17 2
-4 -2 -10 2 -12 8 -4 10 -6 10 -6 1z"/>
<path d="M2256 1245 c4 -8 8 -15 10 -15 2 0 4 7 4 15 0 8 -4 15 -10 15 -5 0
-7 -7 -4 -15z"/>
<path d="M2291 1238 c7 -12 15 -33 20 -47 7 -25 7 -25 8 7 1 17 -4 32 -10 32
-5 0 -8 4 -5 9 3 5 -1 12 -9 15 -13 5 -14 2 -4 -16z"/>
<path d="M2433 1245 c-8 -21 2 -29 24 -20 17 8 17 8 0 12 -9 3 -15 9 -12 14 4
5 4 9 0 9 -3 0 -8 -7 -12 -15z"/>
<path d="M2735 1250 c-8 -14 3 -30 21 -30 8 0 12 -4 9 -10 -3 -5 0 -10 8 -10
8 0 17 6 20 14 4 10 -2 16 -21 18 -15 2 -26 9 -24 16 3 15 -4 16 -13 2z"/>
<path d="M1685 1238 c-44 -3 -104 -14 -133 -23 -29 -9 -57 -13 -62 -10 -5 3
-24 -3 -42 -13 -26 -15 -33 -25 -33 -48 0 -25 4 -29 33 -32 17 -2 32 -7 32
-13 0 -5 -4 -9 -9 -9 -5 0 -12 -7 -15 -16 -3 -8 -2 -13 3 -9 5 3 11 2 14 -2 2
-5 3 -3 1 4 -3 13 34 49 42 40 4 -3 12 0 19 7 9 9 48 12 139 11 69 -1 123 2
120 7 -3 4 2 8 11 8 9 0 26 5 38 12 12 7 45 14 72 16 31 2 55 10 63 20 7 9 12
11 12 4 0 -7 5 -12 11 -12 6 0 9 7 7 16 -2 11 -16 18 -37 20 -19 3 -39 9 -46
14 -15 13 -138 17 -240 8z m226 -24 c8 -4 23 -8 33 -9 11 0 21 -6 24 -14 3
-10 -2 -12 -19 -8 -26 6 -69 -1 -164 -28 -43 -12 -81 -15 -135 -11 -52 3 -87
1 -115 -9 -43 -16 -74 -19 -99 -9 -23 9 -20 34 3 34 11 0 23 5 26 10 11 17 45
11 46 -7 0 -11 5 -7 11 10 8 23 15 28 37 26 14 -2 32 0 39 5 18 11 42 0 42
-19 0 -8 4 -15 10 -15 5 0 7 7 4 15 -15 38 0 42 124 40 65 -1 125 -6 133 -11z"/>
<path d="M2342 1223 c16 -37 15 -36 27 -28 7 4 5 14 -6 30 -24 33 -35 31 -21
-2z"/>
<path d="M1053 1200 c-3 -11 -13 -20 -23 -20 -10 0 -20 -8 -24 -17 -3 -10 -9
-25 -12 -33 -5 -12 -4 -13 7 -2 19 18 29 15 29 -10 0 -15 -3 -19 -8 -11 -6 10
-12 10 -28 -2 -13 -10 -14 -13 -3 -10 13 5 15 0 11 -27 -2 -18 -9 -38 -14 -44
-5 -8 -3 -14 6 -17 9 -4 13 -15 11 -27 -2 -11 0 -20 6 -20 5 0 9 5 9 10 0 6 7
10 15 10 12 0 13 -4 3 -26 -10 -22 -9 -27 5 -36 10 -5 16 -12 13 -16 -2 -4 2
-12 9 -19 10 -9 14 -8 18 8 3 10 2 17 -3 14 -4 -3 -10 8 -12 25 -3 17 0 27 6
23 5 -4 7 1 3 10 -3 10 -2 17 3 17 6 0 10 4 10 10 0 5 -13 7 -30 5 -17 -2 -30
1 -30 7 0 6 9 8 20 5 11 -3 18 -1 14 4 -3 5 -15 9 -27 10 l-22 0 23 11 c15 8
22 20 22 41 0 17 -3 27 -7 23 -8 -8 -9 -13 -12 -41 -2 -22 -21 -18 -21 4 0 11
14 32 30 48 33 31 42 57 10 28 -22 -19 -28 -7 -7 14 10 10 9 11 -5 6 -10 -4
-18 -3 -18 3 0 6 9 14 20 17 11 4 17 11 14 17 -4 6 0 14 7 19 11 7 12 9 1 9
-8 0 -16 -9 -19 -20z"/>
<path d="M2241 1193 c0 -17 4 -35 9 -38 6 -3 10 -1 10 5 0 6 8 4 17 -6 18 -18
19 -40 10 -159 l-6 -70 9 68 c8 68 20 101 20 59 0 -12 5 -22 11 -22 6 0 8 -7
5 -16 -5 -12 -2 -15 10 -10 8 3 18 6 20 6 2 0 4 7 4 15 0 8 4 15 8 15 5 0 9
14 9 30 0 34 -17 42 -18 8 0 -13 -4 -32 -9 -43 -7 -18 -8 -17 -15 10 -5 17
-12 32 -16 35 -4 3 -9 22 -11 42 -1 27 -7 38 -23 42 -11 3 -22 4 -25 3 -3 -1
-8 12 -11 28 l-7 30 -1 -32z"/>
<path d="M2400 1210 c-13 -8 -12 -10 3 -10 9 0 17 5 17 10 0 12 -1 12 -20 0z"/>
<path d="M1096 1194 c-4 -9 -4 -19 -1 -22 2 -3 7 3 11 12 4 9 4 19 1 22 -2 3
-7 -3 -11 -12z"/>
<path d="M2490 1206 c0 -2 7 -7 16 -10 8 -3 12 -2 9 4 -6 10 -25 14 -25 6z"/>
<path d="M2709 1193 c7 -14 21 -23 34 -22 15 0 17 2 7 6 -8 3 -24 13 -34 22
-18 15 -18 15 -7 -6z"/>
<path d="M1130 1174 c0 -20 -4 -25 -16 -20 -13 5 -15 1 -10 -20 5 -17 2 -32
-8 -43 -19 -21 -25 -73 -8 -78 7 -3 10 1 6 11 -7 18 14 76 26 76 5 0 10 -8 12
-17 3 -13 6 -10 10 9 3 15 1 25 -3 22 -5 -3 -6 15 -3 40 4 26 4 46 0 46 -3 0
-6 -12 -6 -26z"/>
<path d="M2037 1179 c4 -16 8 -17 14 -7 13 19 11 28 -5 28 -9 0 -12 -7 -9 -21z"/>
<path d="M1190 1177 c-9 -7 -15 -21 -15 -32 0 -11 -3 -25 -8 -32 -5 -7 -3 -21
3 -33 6 -11 8 -29 5 -40 -3 -10 -1 -21 5 -25 6 -3 10 3 10 17 0 36 11 68 21
62 5 -3 9 -1 9 5 0 17 -18 22 -24 6 -3 -8 -10 -15 -16 -15 -6 0 -3 11 6 25 9
14 19 23 23 20 4 -2 5 9 3 26 -2 16 -5 29 -6 29 0 0 -8 -6 -16 -13z m7 -29
c-3 -8 -6 -5 -6 6 -1 11 2 17 5 13 3 -3 4 -12 1 -19z"/>
<path d="M2430 1175 c0 -18 -22 -19 -53 -4 -21 10 -21 10 -3 -5 11 -9 30 -16
43 -16 17 0 23 -6 24 -22 1 -18 3 -17 8 7 4 17 3 33 -2 36 -5 4 -3 9 4 12 10
4 9 6 -3 6 -10 1 -18 -6 -18 -14z"/>
<path d="M2513 1145 c12 -19 26 -34 31 -35 5 0 3 7 -4 15 -7 8 -9 23 -4 37 6
20 5 21 -10 9 -10 -9 -16 -10 -16 -2 0 6 -4 11 -10 11 -5 0 1 -16 13 -35z"/>
<path d="M2139 1165 c-1 -3 -2 -10 -3 -15 0 -6 -8 -15 -16 -21 -12 -8 -11 -9
6 -5 14 4 30 -2 50 -19 19 -16 24 -25 14 -25 -12 -1 -11 -3 3 -11 9 -6 15 -14
12 -20 -4 -5 0 -9 8 -9 8 0 17 -9 20 -20 6 -25 29 -27 25 -2 -1 9 0 22 4 27 3
6 9 28 13 49 6 28 5 37 -4 32 -6 -4 -11 -20 -11 -35 0 -33 -7 -42 -27 -34 -11
4 -12 8 -3 13 7 4 9 13 6 19 -4 6 -12 9 -17 6 -5 -4 -12 1 -15 9 -3 9 -10 14
-14 11 -5 -3 -14 8 -22 25 -11 27 -26 39 -29 25z"/>
<path d="M2336 1159 c-13 -42 -14 -63 -1 -75 11 -11 12 -7 8 29 -3 30 -2 38 6
27 5 -8 13 -11 17 -7 4 4 0 15 -9 24 -14 14 -17 14 -21 2z"/>
<path d="M2569 1162 c8 -6 11 -18 7 -30 -5 -15 -1 -24 13 -32 17 -9 20 -8 15
5 -3 8 -10 13 -14 10 -5 -3 -8 7 -7 21 1 17 -4 29 -13 31 -12 4 -12 3 -1 -5z"/>
<path d="M1350 1153 c-18 -7 -30 -23 -30 -40 0 -25 26 -13 37 17 6 17 11 30
10 29 -1 0 -9 -3 -17 -6z"/>
<path d="M2200 1150 c0 -8 5 -22 10 -30 9 -13 10 -13 10 0 0 8 -5 22 -10 30
-9 13 -10 13 -10 0z"/>
<path d="M2600 1143 c0 -15 19 -37 26 -31 3 4 -1 14 -10 23 -9 9 -16 13 -16 8z"/>
<path d="M747 1133 c-14 -13 -7 -42 8 -37 8 4 15 15 15 25 0 19 -11 25 -23 12z"/>
<path d="M956 1125 c4 -8 10 -12 15 -9 11 6 2 24 -11 24 -5 0 -7 -7 -4 -15z"/>
<path d="M1937 1120 c-3 -11 -1 -20 4 -20 5 0 9 9 9 20 0 11 -2 20 -4 20 -2 0
-6 -9 -9 -20z"/>
<path d="M2460 1130 c0 -5 5 -10 10 -10 6 0 10 5 10 10 0 6 -4 10 -10 10 -5 0
-10 -4 -10 -10z"/>
<path d="M2400 1110 c0 -5 5 -10 11 -10 5 0 7 5 4 10 -3 6 -8 10 -11 10 -2 0
-4 -4 -4 -10z"/>
<path d="M2500 1113 c0 -12 20 -39 20 -28 0 6 5 3 10 -5 7 -11 10 -12 10 -2 0
7 -6 20 -14 28 -16 15 -26 18 -26 7z"/>
<path d="M1748 1103 c7 -3 16 -2 19 1 4 3 -2 6 -13 5 -11 0 -14 -3 -6 -6z"/>
<path d="M1229 1083 c-11 -14 -11 -15 0 -9 10 6 12 4 7 -11 -4 -12 -1 -25 8
-32 12 -10 14 -7 12 24 -4 44 -9 50 -27 28z"/>
<path d="M1835 1090 c-3 -5 -1 -10 4 -10 6 0 11 5 11 10 0 6 -2 10 -4 10 -3 0
-8 -4 -11 -10z"/>
<path d="M2107 1076 c7 -36 53 -44 53 -9 0 10 -6 12 -22 8 -17 -6 -20 -4 -15
9 4 10 1 16 -7 16 -9 0 -12 -8 -9 -24z"/>
<path d="M2430 1088 c0 -5 -4 -6 -10 -3 -6 3 -7 -1 -4 -9 3 -9 1 -16 -6 -16
-7 0 -9 -11 -7 -27 7 -41 18 -63 30 -63 7 0 7 4 -1 12 -31 31 1 124 34 97 7
-6 16 -19 19 -30 8 -23 21 -25 29 -3 4 10 1 14 -6 12 -7 -3 -18 5 -23 16 -10
21 -55 32 -55 14z"/>
<path d="M950 1081 c0 -6 5 -13 10 -16 6 -3 10 1 10 9 0 9 -4 16 -10 16 -5 0
-10 -4 -10 -9z"/>
<path d="M1508 1083 c7 -3 16 -2 19 1 4 3 -2 6 -13 5 -11 0 -14 -3 -6 -6z"/>
<path d="M2062 1078 c3 -7 13 -15 23 -17 17 -3 17 -2 3 13 -20 19 -31 21 -26
4z"/>
<path d="M2570 1080 c0 -6 7 -10 15 -10 8 0 15 2 15 4 0 2 -7 6 -15 10 -8 3
-15 1 -15 -4z"/>
<path d="M930 1064 c0 -8 5 -12 10 -9 6 4 8 11 5 16 -9 14 -15 11 -15 -7z"/>
<path d="M2446 1053 c-6 -14 -5 -15 5 -6 7 7 10 15 7 18 -3 3 -9 -2 -12 -12z"/>
<path d="M1117 1040 c7 -26 29 -44 38 -30 3 5 1 10 -5 10 -7 0 -10 6 -7 14 3
8 -1 17 -9 20 -22 9 -23 8 -17 -14z"/>
<path d="M2550 1051 c0 -6 5 -11 11 -11 6 0 9 -7 6 -15 -4 -8 -1 -17 4 -21 7
-4 9 4 7 22 -3 26 -28 48 -28 25z"/>
<path d="M2054 1035 c11 -8 25 -15 30 -15 6 0 2 7 -8 15 -11 8 -25 15 -30 15
-6 0 -2 -7 8 -15z"/>
<path d="M950 1028 c0 -9 -7 -18 -15 -22 -16 -6 -21 -26 -7 -26 12 0 37 49 29
57 -4 3 -7 -1 -7 -9z"/>
<path d="M1212 1022 c3 -10 -1 -23 -9 -31 -8 -7 -11 -22 -8 -34 5 -17 4 -19
-4 -7 -9 13 -11 13 -11 -2 0 -10 5 -18 11 -18 7 0 8 -11 4 -29 -3 -17 -2 -32
4 -36 7 -4 11 5 11 24 0 20 5 31 14 31 15 0 26 22 25 48 0 11 -4 8 -10 -8 -8
-20 -12 -22 -19 -10 -5 8 -9 22 -9 30 0 10 3 8 9 -5 7 -15 8 -10 8 23 -1 23
-6 42 -11 42 -5 0 -7 -8 -5 -18z"/>
<path d="M1942 1020 c-13 -10 -30 -16 -38 -13 -12 4 -15 0 -12 -18 2 -14 11
-25 23 -28 17 -3 18 -1 6 13 -11 13 -11 16 0 16 8 0 20 10 27 21 10 16 17 18
25 10 17 -17 31 -13 17 4 -16 19 -20 19 -48 -5z"/>
<path d="M2166 1033 c-12 -12 -6 -22 9 -17 10 4 15 0 15 -11 0 -18 -18 -18
-65 0 -17 6 -17 5 3 -9 23 -18 30 -46 12 -46 -7 0 -7 -6 0 -20 6 -11 8 -30 5
-42 -3 -15 3 -36 17 -57 13 -19 29 -44 35 -55 7 -12 13 -16 13 -11 0 6 5 2 11
-8 5 -9 7 -22 4 -27 -3 -6 1 -10 9 -10 9 0 16 -7 16 -16 0 -9 -5 -12 -12 -8
-8 5 -9 2 -5 -9 9 -24 -12 -67 -29 -60 -8 3 -14 0 -14 -5 0 -16 18 -24 25 -12
4 6 10 8 15 5 5 -3 14 4 20 15 6 12 7 20 1 20 -5 0 -5 12 2 29 6 17 14 28 19
25 4 -3 10 7 14 21 3 14 10 25 14 25 4 0 13 14 20 30 7 17 16 30 21 30 5 0 6
7 3 15 -9 21 -20 10 -27 -25 -4 -18 -13 -30 -22 -30 -19 0 -19 10 -1 44 14 28
11 62 -6 72 -5 4 -9 -4 -8 -17 4 -45 0 -70 -10 -64 -5 3 -10 -1 -10 -9 0 -8 5
-18 10 -21 15 -9 12 -55 -4 -55 -12 0 -32 44 -28 63 1 4 -5 7 -14 7 -34 0 -78
78 -65 113 6 16 6 28 -2 36 -8 8 -7 11 4 11 13 0 29 22 45 60 4 9 -33 30 -40
23z"/>
<path d="M2462 1027 c-8 -10 -6 -13 9 -14 19 -2 26 11 10 21 -5 3 -14 0 -19
-7z"/>
<path d="M1859 1009 c-1 -13 -2 -33 -3 -43 -1 -27 -26 -33 -26 -7 0 12 -5 21
-11 21 -6 0 -9 -10 -7 -22 2 -14 -5 -30 -16 -39 -25 -21 -15 -85 14 -94 11 -4
20 -11 20 -16 0 -6 4 -7 10 -4 16 10 52 -15 46 -31 -3 -9 -1 -12 4 -9 6 3 10
11 10 17 0 12 -47 58 -58 57 -21 -3 -31 4 -40 30 -8 24 -7 32 7 45 32 29 71
13 71 -28 1 -20 1 -20 11 -3 7 13 7 22 0 31 -7 9 -7 16 1 24 9 9 8 12 -4 12
-9 0 -19 7 -22 16 -8 22 -8 26 4 19 6 -4 9 2 7 14 -5 31 -17 38 -18 10z"/>
<path d="M1390 1010 l-25 -8 28 -1 c15 -1 27 4 27 9 0 6 -1 10 -2 9 -2 -1 -14
-5 -28 -9z"/>
<path d="M1450 1010 c8 -5 20 -10 25 -10 6 0 3 5 -5 10 -8 5 -19 10 -25 10 -5
0 -3 -5 5 -10z"/>
<path d="M2036 1005 c4 -8 11 -15 16 -15 6 0 5 6 -2 15 -7 8 -14 15 -16 15 -2
0 -1 -7 2 -15z"/>
<path d="M1710 999 c0 -3 -11 -4 -25 -1 -28 5 -55 -12 -55 -35 0 -11 6 -11 28
4 29 21 72 28 72 12 0 -5 7 -9 15 -9 8 0 15 9 15 19 0 14 -7 19 -25 17 -14 0
-25 -4 -25 -7z"/>
<path d="M1783 1003 c-17 -6 -16 -31 2 -49 8 -9 15 -12 15 -7 0 5 -5 14 -11
20 -13 13 -3 36 12 28 5 -4 9 -1 9 4 0 12 -7 13 -27 4z"/>
<path d="M2010 1000 c0 -5 5 -10 11 -10 5 0 7 5 4 10 -3 6 -8 10 -11 10 -2 0
-4 -4 -4 -10z"/>
<path d="M1156 981 c-15 -17 -15 -19 1 -32 12 -10 15 -10 9 -1 -4 7 -2 20 5
28 18 22 5 27 -15 5z"/>
<path d="M2470 986 c0 -17 14 -29 23 -20 8 8 -3 34 -14 34 -5 0 -9 -6 -9 -14z"/>
<path d="M1478 983 c7 -3 16 -2 19 1 4 3 -2 6 -13 5 -11 0 -14 -3 -6 -6z"/>
<path d="M1980 980 c0 -5 5 -10 10 -10 6 0 10 5 10 10 0 6 -4 10 -10 10 -5 0
-10 -4 -10 -10z"/>
<path d="M2066 982 c-8 -14 34 -23 53 -12 14 8 14 9 -1 10 -9 0 -23 3 -31 6
-8 3 -18 1 -21 -4z"/>
<path d="M1415 970 c-3 -5 -1 -10 4 -10 6 0 11 5 11 10 0 6 -2 10 -4 10 -3 0
-8 -4 -11 -10z"/>
<path d="M1446 971 c-4 -7 -5 -15 -2 -18 9 -9 19 4 14 18 -4 11 -6 11 -12 0z"/>
<path d="M1585 970 c-3 -5 -3 -10 2 -11 4 0 -1 -4 -12 -9 -17 -7 -15 -9 13 -9
30 -1 32 1 22 19 -12 23 -16 24 -25 10z"/>
<path d="M2233 937 c13 -27 16 -42 8 -45 -14 -5 -15 -52 0 -52 5 0 8 4 5 9 -4
5 -2 11 3 13 11 4 14 28 11 83 -1 32 -3 36 -10 20 -5 -11 -9 -15 -9 -9 -1 7
-7 14 -15 17 -10 4 -8 -6 7 -36z"/>
<path d="M1299 950 c-1 -8 -1 -20 0 -26 1 -7 -5 -14 -14 -18 -10 -3 -15 1 -15
12 0 15 -2 15 -10 2 -6 -10 -6 -16 0 -18 6 -2 7 -15 4 -28 -4 -15 -2 -24 5
-24 6 0 11 9 11 21 0 11 5 17 10 14 6 -4 13 8 17 25 3 18 12 34 19 37 21 8 17
19 -6 19 -11 0 -21 -7 -21 -16z"/>
<path d="M1486 940 c-16 -15 -25 -33 -22 -39 5 -7 -3 -11 -21 -12 -26 -1 -24
-2 16 -15 11 -3 11 -7 1 -19 -8 -9 -8 -15 -2 -15 6 0 13 9 17 19 3 11 12 22
20 25 8 3 15 14 15 24 0 10 3 22 7 26 9 9 13 36 5 35 -4 -1 -20 -14 -36 -29z
m0 -37 c-10 -10 -19 5 -10 18 6 11 8 11 12 0 2 -7 1 -15 -2 -18z"/>
<path d="M1670 960 c0 -5 4 -10 9 -10 6 0 13 5 16 10 3 6 -1 10 -9 10 -9 0
-16 -4 -16 -10z"/>
<path d="M2007 963 c-4 -3 -7 -13 -7 -22 1 -13 3 -13 11 2 11 19 8 33 -4 20z"/>
<path d="M1937 939 c-3 -12 -3 -19 0 -16 2 3 14 -4 24 -14 13 -13 27 -18 41
-13 15 4 19 2 16 -7 -8 -23 21 -68 48 -75 14 -4 23 -11 21 -18 -2 -6 3 -17 10
-25 8 -7 12 -19 9 -26 -3 -8 2 -16 10 -19 12 -5 13 -10 3 -27 -7 -15 -8 -19 0
-15 7 4 9 1 5 -8 -3 -8 -12 -12 -20 -9 -9 3 -13 12 -10 20 7 17 -11 54 -31 66
-7 5 -11 12 -8 16 2 5 -4 16 -15 26 -11 10 -20 24 -20 32 0 7 -6 13 -14 13 -8
0 -18 9 -21 20 -9 27 -29 26 -22 -2 4 -12 1 -28 -6 -36 -10 -13 -8 -14 11 -8
16 5 24 3 28 -8 3 -9 12 -16 20 -16 8 0 14 -7 14 -15 0 -22 -4 -30 -13 -27 -5
1 -7 -10 -5 -25 2 -19 8 -28 20 -27 15 1 16 -2 7 -19 -9 -16 -13 -17 -20 -6
-6 9 -7 4 -3 -16 8 -36 14 -45 14 -21 0 10 7 24 15 32 20 20 19 46 -1 42 -10
-2 -19 3 -22 11 -3 8 0 11 6 7 6 -3 12 0 15 6 3 9 12 6 28 -10 18 -17 21 -25
11 -31 -10 -6 -10 -13 3 -37 12 -23 15 -25 15 -9 0 17 2 17 10 5 7 -12 10 -12
10 -1 0 7 6 11 14 8 20 -8 14 42 -12 94 -26 53 -19 73 18 49 13 -9 13 -11 0
-21 -13 -9 -12 -10 2 -5 22 7 42 -27 32 -56 -4 -14 -2 -18 5 -14 6 4 11 2 11
-4 0 -6 5 -8 11 -4 8 4 7 9 -2 15 -7 4 -10 11 -6 15 10 11 -46 104 -63 104 -9
0 -21 -5 -28 -12 -9 -9 -12 -9 -12 0 0 7 -6 12 -12 12 -25 0 -40 18 -44 48
l-3 31 37 -22 c29 -17 34 -18 23 -4 -7 9 -11 28 -9 42 4 19 1 25 -13 25 -11 0
-19 -4 -19 -10 0 -5 5 -10 10 -10 6 0 10 -7 10 -17 0 -14 -2 -14 -20 2 -11 10
-17 22 -13 28 3 6 1 7 -5 3 -6 -4 -9 -13 -6 -20 7 -18 -39 -26 -54 -10 -7 7
-12 18 -12 23 0 20 -18 20 -23 0z"/>
<path d="M2181 937 c-18 -46 -13 -60 13 -34 7 7 9 22 5 37 l-6 25 -12 -28z"/>
<path d="M2316 939 c-11 -11 -15 -22 -10 -31 5 -7 7 -20 6 -30 -2 -9 2 -19 7
-23 13 -7 24 32 19 72 -3 29 -4 29 -22 12z"/>
<path d="M1531 929 c-15 -26 -11 -31 11 -15 9 7 13 17 9 24 -4 7 -11 5 -20 -9z"/>
<path d="M1730 939 c0 -5 4 -8 9 -5 5 4 12 0 14 -6 3 -8 6 -6 6 5 1 9 -6 17
-14 17 -8 0 -15 -5 -15 -11z"/>
<path d="M1660 923 c0 -15 2 -16 10 -3 9 13 11 13 20 0 15 -22 8 -43 -20 -57
-13 -7 -28 -20 -31 -30 -11 -27 -10 -75 1 -68 5 3 6 13 3 22 -6 15 -5 16 9 3
9 -8 13 -19 10 -25 -3 -5 2 -4 11 4 17 14 24 37 8 27 -12 -8 -34 21 -26 34 3
6 10 8 15 5 5 -3 11 -1 15 5 4 6 10 8 15 5 5 -3 12 0 16 6 5 8 3 9 -6 4 -10
-6 -12 -4 -7 9 4 10 7 20 7 22 0 2 5 4 10 4 6 0 10 -7 10 -15 0 -8 7 -15 15
-15 8 0 15 4 15 9 0 5 3 18 6 28 5 16 4 16 -11 -2 -15 -19 -16 -19 -22 3 -4
18 -8 20 -14 10 -6 -9 -9 -7 -9 10 0 17 -6 22 -25 22 -17 0 -25 -5 -25 -17z"/>
<path d="M2486 932 c-3 -5 1 -9 9 -9 8 0 15 4 15 9 0 4 -4 8 -9 8 -6 0 -12 -4
-15 -8z"/>
<path d="M1588 923 c-10 -2 -18 -12 -17 -21 0 -11 2 -12 6 -4 2 6 13 12 24 12
10 0 19 5 19 10 0 10 -3 11 -32 3z"/>
<path d="M2090 921 c0 -5 9 -7 20 -4 11 3 20 7 20 9 0 2 -9 4 -20 4 -11 0 -20
-4 -20 -9z"/>
<path d="M2456 915 c-3 -9 -6 -22 -5 -28 0 -7 5 -1 10 12 5 13 8 26 5 28 -2 2
-6 -3 -10 -12z"/>
<path d="M1145 910 c3 -5 8 -10 11 -10 2 0 4 5 4 10 0 6 -5 10 -11 10 -5 0 -7
-4 -4 -10z"/>
<path d="M2483 895 c-8 -9 -9 -16 -3 -20 10 -6 8 -40 -3 -51 -6 -7 -11 10 -8
29 0 4 -3 7 -9 7 -14 0 -12 -26 3 -38 15 -13 42 1 33 17 -4 6 -2 11 3 11 6 0
11 -5 11 -12 0 -6 3 -8 6 -5 4 4 -1 18 -10 32 -9 14 -12 25 -6 25 5 0 10 5 10
10 0 14 -13 12 -27 -5z"/>
<path d="M1640 891 c0 -5 5 -13 10 -16 6 -3 10 -2 10 4 0 5 -4 13 -10 16 -5 3
-10 2 -10 -4z"/>
<path d="M1120 879 c0 -5 5 -7 10 -4 6 3 10 -3 10 -14 0 -23 24 -29 36 -9 5 8
2 9 -10 5 -14 -6 -16 -3 -11 13 5 16 2 20 -14 20 -12 0 -21 -5 -21 -11z"/>
<path d="M1376 875 c-22 -17 -17 -29 8 -19 9 3 16 12 16 20 0 17 0 17 -24 -1z"/>
<path d="M1516 875 c-3 -8 -3 -22 0 -30 4 -9 -1 -18 -11 -21 -11 -5 -15 -16
-13 -34 1 -17 -5 -37 -16 -49 -35 -39 1 -22 43 20 43 44 58 68 17 30 -21 -19
-24 -20 -30 -6 -3 9 1 23 10 32 8 9 13 22 10 29 -3 8 -1 14 4 14 6 0 10 -7 10
-17 0 -20 13 -9 16 15 5 28 -30 43 -40 17z"/>
<path d="M1583 873 c-3 -10 -8 -22 -11 -28 -3 -5 7 1 21 14 31 28 32 31 12 31
-9 0 -18 -8 -22 -17z"/>
<path d="M1830 871 c0 -6 4 -13 10 -16 6 -3 7 1 4 9 -7 18 -14 21 -14 7z"/>
<path d="M1900 874 c0 -5 7 -18 15 -28 8 -11 15 -16 15 -10 0 5 -7 18 -15 28
-8 11 -15 16 -15 10z"/>
<path d="M2191 869 c0 -9 6 -22 14 -29 8 -6 13 -15 12 -18 -1 -4 2 -8 8 -10 5
-2 11 1 13 7 2 6 -1 11 -7 11 -6 0 -11 7 -11 16 0 8 -4 13 -9 9 -5 -3 -12 3
-14 12 -4 15 -5 15 -6 2z"/>
<path d="M2345 869 c-4 -6 -5 -12 -2 -15 2 -3 7 2 10 11 7 17 1 20 -8 4z"/>
<path d="M2110 862 c0 -6 -8 -13 -17 -15 -10 -3 -6 -4 10 -3 27 2 38 17 18 24
-6 2 -11 -1 -11 -6z"/>
<path d="M1122 840 c0 -14 2 -19 5 -12 2 6 2 18 0 25 -3 6 -5 1 -5 -13z"/>
<path d="M1603 843 c-3 -10 -13 -26 -21 -35 -16 -19 -9 -73 9 -63 5 4 7 16 4
26 -4 11 -2 25 3 32 10 13 23 57 16 57 -3 0 -7 -8 -11 -17z"/>
<path d="M2368 853 c7 -3 16 -2 19 1 4 3 -2 6 -13 5 -11 0 -14 -3 -6 -6z"/>
<path d="M1729 829 c-12 -23 -12 -39 1 -39 6 0 10 7 10 15 0 8 4 15 10 15 5 0
7 -6 4 -14 -7 -17 12 -31 21 -16 4 6 1 17 -5 25 -6 8 -9 18 -6 23 3 5 -2 9
-10 9 -8 0 -19 -8 -25 -18z"/>
<path d="M1875 839 c-10 -15 3 -25 16 -12 7 7 7 13 1 17 -6 3 -14 1 -17 -5z"/>
<path d="M1403 833 c-7 -2 -13 -13 -13 -24 0 -11 -8 -23 -17 -26 -30 -11 -44
-40 -19 -40 8 0 12 6 8 15 -3 10 -1 13 6 8 7 -4 12 -3 12 2 0 5 14 23 30 41
28 28 25 37 -7 24z"/>
<path d="M1140 821 c0 -5 5 -13 10 -16 6 -3 10 -2 10 4 0 5 -4 13 -10 16 -5 3
-10 2 -10 -4z"/>
<path d="M1345 810 c-3 -5 -2 -10 4 -10 5 0 13 5 16 10 3 6 2 10 -4 10 -5 0
-13 -4 -16 -10z"/>
<path d="M1446 804 c-18 -17 -19 -24 -8 -42 6 -8 13 -1 25 23 18 37 9 46 -17
19z"/>
<path d="M1910 812 c0 -4 5 -13 11 -19 8 -8 8 -17 0 -32 -7 -12 -8 -21 -2 -21
5 0 6 -10 3 -22 -5 -20 -4 -21 9 -8 16 16 19 77 6 98 -9 13 -27 16 -27 4z"/>
<path d="M1786 779 c-11 -11 -24 -19 -30 -19 -6 0 -19 -27 -30 -60 -10 -33
-22 -57 -27 -54 -5 3 -9 -2 -9 -11 0 -11 5 -15 15 -11 19 7 19 -5 -2 -49 -11
-23 -13 -39 -7 -45 6 -6 10 0 12 18 1 15 7 29 12 30 6 2 10 10 10 18 0 9 5 12
10 9 6 -4 10 6 10 22 0 19 -3 24 -9 14 -6 -9 -11 -10 -15 -2 -9 13 2 33 14 26
9 -5 20 28 20 62 0 28 17 38 36 23 10 -9 11 -16 4 -25 -5 -6 -7 -15 -3 -19 4
-4 13 4 21 16 7 13 11 15 8 6 -3 -10 -1 -18 4 -18 5 0 7 -9 5 -20 -2 -13 2
-20 11 -20 8 0 14 -4 14 -10 0 -5 5 -10 11 -10 8 0 8 4 -1 15 -6 8 -8 20 -4
26 5 9 2 10 -10 6 -10 -4 -15 -3 -11 3 8 13 -14 52 -26 45 -5 -4 -12 1 -16 10
-3 10 0 21 7 25 6 4 8 10 4 12 -5 3 -18 -3 -28 -13z"/>
<path d="M1845 776 c-6 -13 -5 -21 3 -24 7 -2 12 -12 12 -22 0 -9 7 -23 15
-30 8 -7 15 -27 15 -46 0 -27 20 -64 35 -64 2 0 3 17 1 38 -2 22 -8 36 -14 35
-7 -2 -12 8 -12 22 0 14 -5 25 -11 25 -6 0 -9 9 -6 20 3 13 0 20 -8 20 -8 0
-15 10 -18 23 -3 21 -4 21 -12 3z"/>
<path d="M1974 766 c-3 -8 -4 -22 -2 -31 2 -12 8 -8 21 14 16 27 16 31 2 31
-8 0 -18 -6 -21 -14z"/>
<path d="M1393 759 c-6 -8 -13 -25 -15 -39 -1 -14 -7 -28 -13 -32 -6 -5 -6 -8
2 -8 14 0 47 64 41 81 -3 8 -7 7 -15 -2z"/>
<path d="M975 750 c3 -5 10 -10 16 -10 5 0 9 5 9 10 0 6 -7 10 -16 10 -8 0
-12 -4 -9 -10z"/>
<path d="M1555 748 c-4 -9 -13 -14 -21 -11 -8 3 -14 0 -14 -7 0 -6 5 -8 10 -5
6 3 11 -4 11 -17 1 -17 3 -18 6 -5 5 19 23 24 22 5 0 -7 -10 -31 -22 -53 -22
-40 -53 -53 -70 -30 -5 6 -7 4 -6 -5 3 -27 -1 -41 -10 -36 -4 3 -17 -1 -27 -9
-10 -8 -14 -15 -8 -15 5 0 15 5 22 12 7 7 12 8 12 2 0 -6 -3 -14 -7 -18 -4 -3
-8 -14 -9 -24 -3 -16 -2 -16 10 0 7 10 16 15 20 11 4 -4 11 -1 16 7 15 24 11
36 -5 14 -13 -17 -14 -17 -15 -2 0 17 15 31 37 34 7 1 9 -5 6 -14 -4 -10 -2
-13 5 -8 7 4 10 -3 7 -21 -1 -16 -7 -27 -13 -26 -5 1 -12 -10 -15 -25 l-5 -27
24 29 c14 16 31 26 39 22 8 -3 17 0 21 6 5 7 2 8 -6 3 -10 -6 -12 -2 -8 16 3
13 9 32 13 42 5 13 3 16 -9 11 -8 -3 -15 -9 -14 -12 3 -24 -4 -52 -12 -52 -5
0 -7 6 -4 14 3 8 1 24 -6 35 -7 14 -7 21 0 21 6 0 16 12 22 28 7 15 18 34 25
43 11 13 11 22 -1 50 -11 27 -16 30 -21 17z"/>
<path d="M1691 744 c0 -11 -4 -24 -8 -28 -5 -4 -8 -11 -9 -14 0 -4 -4 -15 -9
-25 -4 -10 -5 -21 -1 -24 9 -10 38 67 33 91 -4 21 -4 21 -6 0z"/>
<path d="M2151 744 c0 -11 3 -14 6 -6 3 7 2 16 -1 19 -3 4 -6 -2 -5 -13z"/>
<path d="M1651 734 c0 -12 -8 -27 -16 -34 -9 -7 -13 -15 -11 -18 3 -2 1 -13
-5 -23 -6 -12 -6 -19 0 -19 5 0 13 10 17 23 4 12 11 25 16 28 5 3 8 19 5 35
-3 19 -4 22 -6 8z"/>
<path d="M1611 724 c0 -11 3 -14 6 -6 3 7 2 16 -1 19 -3 4 -6 -2 -5 -13z"/>
<path d="M1339 701 c-8 -22 -16 -30 -26 -27 -40 16 -66 19 -58 7 4 -7 9 -10
12 -7 3 3 15 -1 27 -9 11 -8 24 -15 28 -15 10 0 42 70 34 77 -3 3 -11 -8 -17
-26z"/>
<path d="M1417 703 c-3 -16 -16 -39 -28 -52 -17 -18 -18 -23 -7 -18 13 4 16 0
15 -19 -1 -14 -9 -29 -17 -34 -21 -13 -3 -12 21 1 16 8 18 13 8 25 -9 11 -7
14 12 14 21 1 22 2 7 11 -10 5 -18 15 -18 20 0 6 4 7 10 4 6 -3 7 1 4 9 -3 9
-1 16 5 16 6 0 11 11 11 25 0 34 -16 32 -23 -2z"/>
<path d="M2380 716 c0 -9 5 -16 10 -16 6 0 10 4 10 9 0 6 -4 13 -10 16 -5 3
-10 -1 -10 -9z"/>
<path d="M1502 700 c0 -14 2 -19 5 -12 2 6 2 18 0 25 -3 6 -5 1 -5 -13z"/>
<path d="M1460 695 c-18 -22 -8 -33 12 -13 10 9 13 20 9 23 -5 2 -14 -2 -21
-10z"/>
<path d="M1940 695 c-11 -13 -11 -16 0 -13 8 2 19 -11 26 -32 15 -46 36 -54
23 -8 -12 42 -11 51 1 43 6 -3 10 1 10 11 0 14 -2 14 -16 3 -12 -10 -17 -10
-23 0 -6 9 -11 8 -21 -4z"/>
<path d="M1767 655 c-8 -46 -4 -54 10 -23 6 13 7 32 3 43 -5 15 -8 11 -13 -20z"/>
<path d="M1803 675 c0 -8 4 -12 9 -9 4 3 8 9 8 15 0 5 -4 9 -8 9 -5 0 -9 -7
-9 -15z"/>
<path d="M1464 656 c-9 -20 -9 -23 2 -19 8 3 14 14 14 24 0 25 -3 24 -16 -5z"/>
<path d="M1592 655 c0 -16 2 -22 5 -12 2 9 2 23 0 30 -3 6 -5 -1 -5 -18z"/>
<path d="M2177 660 c4 -16 8 -18 20 -9 11 10 11 14 1 20 -21 14 -26 10 -21
-11z"/>
<path d="M1506 655 c-3 -8 -2 -15 3 -15 5 0 14 7 21 15 10 12 10 15 -3 15 -8
0 -17 -7 -21 -15z"/>
<path d="M1820 640 c0 -5 5 -10 11 -10 5 0 7 5 4 10 -3 6 -8 10 -11 10 -2 0
-4 -4 -4 -10z"/>
<path d="M1320 621 c7 -14 6 -21 -3 -24 -6 -2 -10 -7 -7 -10 3 -3 11 -3 17 1
14 9 6 52 -9 52 -5 0 -4 -8 2 -19z"/>
<path d="M1660 620 c0 -5 6 -10 13 -10 8 0 8 -3 -2 -9 -9 -6 -11 -16 -7 -27 6
-16 8 -16 20 6 8 17 9 29 3 38 -11 14 -27 16 -27 2z"/>
<path d="M2650 620 c0 -5 9 -10 20 -10 11 0 20 5 20 10 0 6 -9 10 -20 10 -11
0 -20 -4 -20 -10z"/>
<path d="M1600 607 c0 -10 8 -17 18 -17 9 0 13 4 7 8 -5 4 -13 11 -17 16 -5 5
-8 2 -8 -7z"/>
<path d="M1800 610 c-13 -8 -12 -10 3 -10 9 0 17 5 17 10 0 12 -1 12 -20 0z"/>
<path d="M2154 614 c-7 -3 -9 -15 -6 -27 6 -24 32 -55 32 -38 0 5 -5 13 -11
17 -6 3 -9 17 -6 30 2 13 4 24 3 23 0 0 -6 -3 -12 -5z"/>
<path d="M1950 600 c-9 -6 -10 -10 -3 -10 6 0 15 5 18 10 8 12 4 12 -15 0z"/>
<path d="M2096 594 c-8 -21 -3 -26 18 -18 9 4 15 11 13 17 -6 18 -24 19 -31 1z"/>
<path d="M711 584 c0 -11 3 -14 6 -6 3 7 2 16 -1 19 -3 4 -6 -2 -5 -13z"/>
<path d="M1880 579 c0 -11 4 -18 10 -14 5 3 7 12 3 20 -7 21 -13 19 -13 -6z"/>
<path d="M1979 583 c-1 -10 -1 -22 0 -27 3 -15 -10 -46 -19 -46 -5 0 -7 10 -5
21 3 12 1 18 -3 15 -4 -4 -6 -11 -5 -14 1 -4 -6 -15 -15 -25 -16 -18 -15 -19
23 -13 32 5 35 4 17 -4 -13 -5 -20 -15 -17 -21 4 -5 -1 -17 -11 -24 -11 -8
-14 -15 -8 -15 5 0 16 6 22 12 10 10 15 10 20 2 5 -8 11 -7 22 4 13 14 12 15
-2 10 -10 -4 -19 -1 -22 8 -5 12 -1 14 17 9 17 -5 19 -4 7 4 -16 11 -6 14 45
13 17 -1 17 0 3 4 -10 3 -18 10 -18 15 0 5 -5 9 -11 9 -5 0 -7 -4 -4 -10 3 -5
-1 -10 -9 -10 -18 0 -23 64 -6 75 15 9 12 25 -5 25 -8 0 -16 -8 -16 -17z"/>
<path d="M2030 581 c0 -6 5 -13 10 -16 6 -3 10 1 10 9 0 9 -4 16 -10 16 -5 0
-10 -4 -10 -9z"/>
<path d="M1613 567 c3 -10 2 -17 -3 -17 -6 0 -10 5 -10 10 0 6 -4 10 -9 10 -5
0 -4 -11 2 -25 7 -13 14 -20 15 -15 2 6 8 10 13 10 6 0 7 -5 3 -12 -4 -6 -3
-8 4 -5 12 8 5 44 -11 54 -6 4 -8 0 -4 -10z"/>
<path d="M1845 569 c-11 -17 1 -21 15 -4 8 9 8 15 2 15 -6 0 -14 -5 -17 -11z"/>
<path d="M1798 545 c2 -14 8 -23 12 -20 8 5 35 -23 42 -44 3 -10 6 -10 17 3
11 14 11 16 -3 16 -9 0 -16 7 -16 16 0 8 -4 13 -9 10 -4 -3 -13 6 -19 19 -15
32 -31 32 -24 0z"/>
<path d="M1390 556 c0 -2 7 -7 16 -10 8 -3 12 -2 9 4 -6 10 -25 14 -25 6z"/>
<path d="M1741 544 c0 -11 3 -14 6 -6 3 7 2 16 -1 19 -3 4 -6 -2 -5 -13z"/>
<path d="M1875 540 c-8 -13 5 -13 25 0 13 8 13 10 -2 10 -9 0 -20 -4 -23 -10z"/>
<path d="M2040 540 c0 -5 7 -10 15 -10 8 0 15 5 15 10 0 6 -7 10 -15 10 -8 0
-15 -4 -15 -10z"/>
<path d="M1391 524 c0 -11 3 -14 6 -6 3 7 2 16 -1 19 -3 4 -6 -2 -5 -13z"/>
<path d="M1642 513 c-13 -14 -19 -29 -14 -32 5 -3 12 -13 15 -21 4 -12 6 -12
7 3 3 19 7 36 10 40 2 3 9 37 7 37 -1 0 -12 -12 -25 -27z"/>
<path d="M2136 525 c-3 -8 -1 -15 4 -15 6 0 10 7 10 15 0 8 -2 15 -4 15 -2 0
-6 -7 -10 -15z"/>
<path d="M2215 531 c-11 -4 -20 -17 -20 -27 0 -10 -6 -20 -12 -20 -49 -5 -49
-5 -25 -17 20 -9 26 -8 34 6 7 13 16 16 31 11 21 -6 20 -5 -3 16 -22 20 -23
22 -4 16 15 -4 21 -2 21 9 0 8 -1 15 -1 14 -1 0 -10 -4 -21 -8z"/>
<path d="M1457 507 c-10 -10 -17 -20 -15 -22 6 -6 40 24 37 32 -2 5 -12 0 -22
-10z"/>
<path d="M1890 520 c0 -5 5 -10 10 -10 6 0 10 5 10 10 0 6 -4 10 -10 10 -5 0
-10 -4 -10 -10z"/>
<path d="M1695 495 c-16 -13 -24 -24 -17 -25 6 0 12 -5 12 -11 0 -5 -5 -7 -12
-3 -7 4 -8 3 -4 -5 9 -14 26 -5 26 14 0 8 7 18 16 23 9 5 15 14 13 21 -3 6
-16 1 -34 -14z"/>
<path d="M1560 501 c0 -6 6 -11 14 -11 7 0 16 -14 20 -31 3 -19 10 -28 17 -23
7 4 8 9 1 13 -5 3 -12 17 -13 31 -4 24 -39 43 -39 21z"/>
<path d="M1777 489 c3 -10 0 -19 -6 -19 -15 0 -14 -27 1 -36 8 -5 9 -2 5 9 -3
10 -2 17 3 17 6 0 10 8 11 18 0 10 3 12 6 5 6 -16 43 -17 43 -1 0 6 -3 8 -7 5
-3 -4 -11 -3 -17 2 -6 4 -18 11 -27 14 -13 4 -16 1 -12 -14z"/>
<path d="M1740 484 c0 -8 5 -12 10 -9 6 4 8 11 5 16 -9 14 -15 11 -15 -7z"/>
<path d="M1527 483 c-4 -3 -7 -13 -7 -22 1 -13 3 -13 11 2 11 19 8 33 -4 20z"/>
<path d="M1900 475 c7 -8 17 -15 22 -15 5 0 3 7 -6 15 -8 8 -18 15 -22 15 -3
0 -1 -7 6 -15z"/>
<path d="M1716 462 c-2 -4 -1 -14 3 -21 6 -9 11 -10 15 -2 4 6 2 11 -4 11 -6
0 -8 5 -5 10 3 6 4 10 1 10 -3 0 -7 -4 -10 -8z"/>
<path d="M2048 463 c7 -3 16 -2 19 1 4 3 -2 6 -13 5 -11 0 -14 -3 -6 -6z"/>
<path d="M1540 450 c0 -5 5 -10 11 -10 5 0 7 5 4 10 -3 6 -8 10 -11 10 -2 0
-4 -4 -4 -10z"/>
<path d="M1880 440 c0 -5 5 -10 11 -10 5 0 7 5 4 10 -3 6 -8 10 -11 10 -2 0
-4 -4 -4 -10z"/>
<path d="M1497 429 c7 -7 15 -10 18 -7 3 3 -2 9 -12 12 -14 6 -15 5 -6 -5z"/>
<path d="M1640 430 c0 -5 5 -10 11 -10 5 0 7 5 4 10 -3 6 -8 10 -11 10 -2 0
-4 -4 -4 -10z"/>
</g>
</svg>
